 <svg  version="1.0" xmlns="http://www.w3.org/2000/svg"  width="300.000000pt" height="453.000000pt" viewBox="0 0 300.000000 453.000000"  preserveAspectRatio="xMidYMid meet">  <g transform="translate(0.000000,453.000000) scale(0.100000,-0.100000)" fill="#ffffff" stroke="none"> <path d="M1365 4294 c-84 -12 -236 -49 -299 -71 -279 -100 -533 -310 -681 -563 -125 -213 -185 -435 -185 -679 0 -182 10 -233 161 -846 27 -110 56 -247 64 -305 8 -58 23 -129 32 -158 49 -160 237 -141 288 30 8 28 15 56 15 61 0 17 50 77 64 77 29 0 103 -80 131 -142 27 -60 28 -70 34 -268 6 -204 6 -205 38 -272 60 -127 181 -231 320 -274 74 -24 95 -26 186 -22 117 6 185 29 285 96 77 53 134 119 179 209 l35 72 9 193 c4 106 12 214 18 238 12 56 38 120 57 141 13 15 12 17 -6 22 -11 3 -20 13 -20 24 0 10 -5 24 -11 30 -20 20 0 53 32 53 20 0 29 5 29 16 0 16 -12 16 -52 -1 -13 -5 -19 0 -24 19 -5 23 -11 26 -50 26 -25 0 -44 -5 -44 -11 0 -6 11 -8 28 -5 15 3 34 2 42 -4 8 -5 10 -10 4 -10 -9 0 -7 -23 5 -80 10 -45 14 -83 9 -86 -4 -3 -8 -14 -8 -25 0 -14 -9 -21 -30 -25 -34 -7 -41 -24 -10 -24 11 0 20 -5 20 -10 0 -52 -565 -80 -885 -45 -76 9 -142 18 -146 21 -5 3 -9 13 -9 22 0 9 -23 43 -50 75 -28 32 -50 65 -50 72 0 10 -9 12 -34 8 -19 -3 -36 -1 -40 6 -4 6 -12 11 -18 11 -7 0 -6 -5 1 -14 10 -12 7 -17 -12 -28 -65 -36 -127 -81 -141 -103 -9 -14 -12 -25 -7 -25 5 0 11 7 15 15 5 14 47 21 58 10 2 -3 3 -19 0 -36 -3 -22 -9 -29 -19 -24 -11 4 -14 0 -11 -13 6 -21 -8 -52 -22 -52 -6 0 -10 12 -10 27 0 14 -3 23 -7 19 -4 -4 -8 -22 -8 -39 0 -30 -3 -32 -38 -35 -32 -3 -39 0 -44 17 -6 23 -23 29 -23 9 0 -8 -7 -4 -15 6 -8 11 -13 28 -9 38 3 12 0 18 -10 18 -12 0 -16 10 -16 39 0 22 -5 41 -12 43 -17 6 -2 49 32 88 16 19 30 39 30 44 0 5 -14 -7 -31 -27 -17 -20 -35 -34 -40 -31 -14 9 -11 21 17 54 15 17 24 33 22 36 -3 2 -11 -2 -18 -11 -16 -19 -30 -19 -30 0 0 8 14 21 32 28 l32 13 -49 34 c-39 27 -46 35 -31 38 10 2 31 -5 47 -17 32 -24 39 -26 39 -11 0 6 -8 14 -17 17 -39 14 -93 54 -93 68 0 13 6 12 38 -5 45 -25 69 -40 101 -62 13 -10 28 -18 34 -18 14 0 -14 30 -38 41 -11 5 -33 18 -50 29 -16 11 -45 26 -63 34 -32 15 -51 41 -38 53 3 3 18 0 33 -8 16 -7 32 -15 37 -18 5 -2 6 3 3 12 -8 21 41 37 117 39 37 1 53 5 47 11 -15 15 -120 8 -158 -10 -49 -23 -102 -5 -103 35 0 8 20 12 68 12 74 0 112 8 112 22 0 6 -37 6 -96 2 l-96 -7 4 24 c3 23 7 24 80 25 42 1 81 5 87 9 7 4 18 2 26 -5 9 -7 15 -8 20 0 12 19 -5 28 -47 25 -160 -11 -171 -10 -182 7 -5 9 -7 20 -3 24 3 4 53 8 109 10 76 2 103 6 103 16 0 10 -18 12 -75 9 -151 -8 -145 -9 -145 19 l0 25 128 3 c96 2 127 6 124 15 -3 9 -38 11 -135 9 -115 -3 -133 -1 -138 13 -4 9 -3 20 2 25 13 12 273 20 280 9 3 -6 12 -2 19 8 19 25 40 3 40 -40 0 -22 5 -33 18 -35 18 -4 24 22 7 33 -5 3 -10 17 -10 31 0 42 34 27 38 -16 4 -41 21 -67 32 -49 4 6 1 24 -7 41 -11 21 -12 33 -5 40 16 16 44 -10 41 -36 -2 -12 5 -35 14 -52 9 -17 13 -34 10 -37 -3 -4 0 -13 7 -22 7 -8 16 -30 19 -48 4 -19 14 -33 24 -35 21 -4 23 21 2 38 -8 7 -15 21 -15 32 0 10 -7 30 -16 43 -9 14 -14 31 -11 38 3 7 -1 24 -9 38 -20 36 -17 51 9 47 18 -2 22 -9 21 -38 0 -41 10 -51 47 -43 15 3 30 0 33 -6 5 -7 13 -7 26 2 28 17 57 -11 41 -41 -8 -15 -7 -23 4 -32 8 -6 19 -9 25 -5 13 8 13 35 0 35 -5 0 -10 11 -10 25 0 27 26 35 48 13 9 -9 12 -9 12 0 0 7 9 12 20 12 25 0 41 -30 29 -53 -8 -13 -6 -19 6 -23 13 -5 15 -15 11 -38 -5 -24 -2 -34 13 -43 16 -10 20 -9 25 3 3 9 -1 22 -10 31 -8 9 -13 22 -10 30 3 8 6 17 6 19 0 2 7 4 15 4 20 0 35 -32 28 -58 -4 -15 0 -24 13 -29 10 -4 19 -2 22 5 6 19 30 14 42 -9 8 -15 8 -24 0 -34 -8 -10 -7 -16 6 -23 10 -6 15 -16 11 -26 -7 -18 -32 -22 -42 -6 -4 6 -13 5 -25 -2 -25 -16 -53 6 -44 35 8 25 -13 39 -37 24 -13 -8 -21 -8 -32 2 -10 8 -17 9 -22 1 -11 -18 5 -30 38 -27 26 2 33 -2 35 -20 4 -25 -16 -31 -35 -12 -8 8 -13 8 -17 0 -14 -21 5 -30 57 -27 28 2 59 0 68 -5 9 -4 19 -5 23 -2 9 10 527 10 533 0 3 -4 11 -3 18 3 7 6 25 8 39 4 19 -4 28 -2 32 10 8 21 -1 31 -18 20 -7 -5 -34 -10 -60 -11 -41 -1 -48 1 -48 18 0 10 5 19 11 19 7 0 8 11 4 29 -4 17 -2 32 5 36 6 4 9 19 6 33 -8 38 8 61 31 46 10 -7 17 -20 15 -30 -2 -11 -6 -32 -9 -49 -3 -16 -11 -35 -19 -41 -12 -10 -12 -13 0 -24 21 -17 36 -4 36 30 0 16 5 32 10 35 6 3 7 17 4 31 -4 13 -1 31 6 39 7 8 10 22 6 31 -9 22 11 54 34 54 26 0 27 -45 3 -59 -25 -13 -8 -26 35 -26 27 0 37 -5 40 -18 2 -12 -4 -20 -17 -24 -24 -6 -27 -16 -8 -32 17 -14 37 4 37 34 0 12 5 26 11 32 7 7 9 19 5 28 -4 12 -10 14 -25 5 -31 -16 -41 -12 -41 15 0 30 24 43 45 25 8 -7 22 -9 31 -6 25 10 -2 36 -37 36 -24 0 -29 4 -29 25 0 29 29 35 50 10 7 -8 21 -15 31 -15 21 0 32 -15 34 -49 2 -14 6 -34 10 -43 5 -14 2 -18 -15 -18 -13 0 -20 -5 -17 -12 2 -7 10 -12 17 -10 22 5 41 -18 30 -38 -5 -9 -6 -20 -3 -24 4 -3 -4 -17 -17 -31 l-23 -25 30 0 c17 0 33 6 36 14 5 13 61 46 79 46 4 0 8 -18 8 -40 0 -22 5 -40 10 -40 6 0 10 17 10 39 0 43 19 68 38 49 15 -15 15 -58 2 -92 -8 -22 -13 -24 -34 -16 -16 6 -27 6 -31 0 -4 -6 -17 -10 -30 -10 -13 0 -27 -4 -30 -10 -3 -5 -13 -10 -22 -10 -11 0 -14 6 -10 21 3 13 1 19 -6 16 -7 -2 -14 -12 -16 -23 -2 -10 -7 -21 -12 -24 -12 -8 -1164 -4 -1177 4 -7 4 -12 1 -12 -8 0 -14 17 -16 108 -17 239 -2 318 -4 329 -12 6 -4 14 -4 17 1 2 4 178 8 390 7 212 0 386 3 386 8 0 4 8 7 18 7 10 0 23 5 29 11 20 20 43 2 43 -33 0 -25 3 -29 10 -18 5 8 7 22 5 30 -7 22 11 44 29 37 10 -4 16 -19 16 -42 0 -19 5 -35 10 -35 6 0 10 15 10 34 0 19 4 37 10 41 6 3 6 15 0 29 -5 13 -6 26 -3 29 3 3 5 51 4 107 0 82 2 102 15 107 8 3 20 1 27 -6 22 -22 27 -10 27 59 0 78 13 91 42 40 21 -37 29 -37 72 1 43 37 82 49 161 49 66 0 91 -10 82 -33 -4 -10 -34 -17 -109 -24 -134 -14 -180 -31 -193 -72 -6 -21 -14 -30 -23 -26 -11 4 -13 -1 -6 -22 4 -16 7 -41 6 -58 l-2 -29 28 27 c20 20 24 30 14 35 -9 6 -7 18 9 51 25 53 59 68 159 71 104 3 102 3 91 -18 -8 -14 -31 -21 -112 -30 -56 -7 -105 -14 -107 -17 -14 -14 15 -16 94 -6 48 6 89 9 92 7 2 -3 1 -13 -2 -24 -8 -25 -33 -32 -118 -32 -40 0 -70 -5 -74 -12 -5 -8 15 -9 79 -5 52 4 87 3 87 -2 0 -26 -33 -38 -119 -44 -49 -3 -99 -10 -110 -16 -35 -19 -51 -4 -51 50 0 27 -4 49 -10 49 -5 0 -10 -17 -10 -38 0 -21 -5 -43 -11 -49 -8 -8 -8 -13 0 -17 6 -4 12 -26 12 -49 l2 -42 6 38 c7 46 22 51 39 13 11 -22 19 -27 35 -22 53 14 127 19 127 7 0 -6 -11 -17 -25 -23 -14 -6 -25 -17 -25 -24 0 -34 -78 -44 -135 -17 -38 18 -49 15 -39 -11 4 -11 13 -15 26 -10 26 8 38 -10 38 -58 0 -42 -14 -56 -36 -37 -39 32 -284 -4 -284 -41 0 -14 16 -12 48 4 15 7 55 16 90 19 l62 7 0 -33 c0 -57 -49 -75 -51 -18 -1 20 -2 22 -6 6 -3 -11 -10 -25 -15 -32 -15 -19 1 -34 29 -27 18 5 30 2 38 -10 12 -15 13 -15 20 1 5 10 9 38 9 63 1 29 5 45 14 44 6 -1 26 -2 42 -2 27 -2 30 -5 30 -36 0 -19 -5 -38 -10 -41 -6 -4 -8 -15 -5 -26 8 -25 -15 -89 -32 -89 -7 0 -18 -9 -25 -20 -15 -23 -43 -27 -34 -5 3 9 0 15 -8 15 -8 0 -16 -9 -19 -20 -3 -11 -12 -20 -20 -20 -20 0 -31 17 -17 25 13 8 13 25 0 25 -5 0 -10 -6 -10 -13 0 -7 -10 -18 -21 -26 -32 -19 -8 -31 64 -31 54 0 62 3 94 35 19 19 39 35 44 35 5 0 9 9 9 19 0 22 35 51 60 51 9 0 37 13 63 30 26 16 50 30 52 30 3 0 5 -22 5 -49 0 -48 -1 -49 -42 -66 -49 -19 -70 -25 -115 -32 -18 -3 -35 -12 -38 -22 -10 -34 -25 -210 -25 -309 0 -116 14 -160 57 -183 34 -18 110 -16 149 4 54 28 66 71 65 226 0 75 -5 181 -11 236 -5 55 -10 166 -10 246 0 163 1 165 98 369 90 188 121 312 129 515 16 376 -120 728 -382 991 -248 250 -534 375 -883 387 -75 3 -150 3 -167 1z m285 -53 c4 -8 10 -9 14 -3 9 15 253 -46 321 -81 17 -8 44 -21 60 -28 17 -7 49 -26 72 -41 23 -15 45 -28 48 -28 14 0 122 -84 184 -143 90 -86 211 -234 211 -258 0 -7 12 -26 27 -41 33 -34 22 -35 -44 -4 -44 22 -151 58 -178 62 -5 0 -18 4 -28 9 -10 4 -21 5 -24 1 -10 -10 18 -35 33 -29 8 3 21 0 29 -7 9 -7 18 -10 21 -8 10 11 199 -63 223 -87 14 -13 23 -27 20 -30 -3 -3 -39 10 -80 29 -74 33 -167 61 -176 52 -9 -9 8 -26 27 -26 25 0 164 -47 212 -71 25 -13 40 -28 44 -47 4 -15 13 -38 21 -50 22 -35 10 -37 -50 -8 -30 14 -72 30 -93 35 -22 5 -59 15 -84 21 -25 6 -53 16 -63 21 -22 12 -32 6 -24 -16 4 -8 15 -15 25 -15 68 0 297 -82 313 -112 17 -31 3 -33 -58 -5 -67 29 -105 41 -163 52 -8 1 -22 5 -31 9 -9 4 -20 6 -25 5 -5 -1 -17 1 -27 6 -25 10 -31 1 -17 -25 9 -17 14 -19 20 -10 5 8 15 10 26 5 11 -4 33 -9 49 -11 53 -7 217 -66 236 -85 24 -24 25 -43 2 -36 -35 12 -158 57 -158 58 0 1 -47 9 -65 10 -8 1 -20 6 -27 11 -16 13 -34 1 -26 -18 3 -9 13 -14 24 -11 11 3 22 1 25 -4 3 -6 13 -9 22 -8 10 1 24 0 32 -3 8 -3 43 -14 77 -23 79 -23 123 -49 123 -74 0 -19 -2 -19 -53 4 -51 24 -285 80 -294 71 -3 -2 1 -14 7 -26 9 -17 14 -19 26 -9 11 9 17 9 29 -1 8 -6 18 -9 23 -6 13 8 180 -37 229 -60 24 -12 39 -27 41 -41 4 -27 0 -28 -41 -6 -18 9 -48 20 -67 25 -72 19 -234 47 -241 42 -5 -2 -17 1 -28 8 -29 18 -36 4 -18 -34 10 -21 17 -26 17 -15 0 26 28 33 45 11 9 -12 14 -14 15 -6 0 9 10 11 38 6 186 -32 277 -62 288 -96 9 -30 0 -32 -63 -8 -32 12 -83 26 -113 32 -127 23 -216 35 -228 30 -23 -8 -43 19 -40 57 3 34 2 36 -25 33 -16 -2 -35 2 -43 9 -20 17 -44 -5 -26 -23 7 -7 12 -21 13 -32 0 -20 1 -20 9 2 5 12 18 22 29 22 20 0 37 -32 26 -49 -6 -11 -105 -3 -119 10 -5 5 -15 4 -22 -2 -8 -6 -23 -7 -36 -3 -13 4 -54 8 -93 8 l-70 1 0 30 c0 42 39 48 57 10 11 -26 12 -26 20 -6 8 22 42 29 53 11 4 -6 13 -5 26 3 17 10 23 9 37 -9 l18 -21 17 23 c17 23 17 24 -5 28 -25 5 -55 6 -105 6 -18 0 -34 4 -37 9 -4 5 -24 7 -47 4 -40 -6 -41 -5 -37 23 4 38 44 47 57 13 l8 -23 12 21 c8 17 8 28 0 47 -9 20 -9 29 1 41 11 14 15 14 35 1 16 -11 25 -12 33 -4 9 9 18 8 36 -1 35 -19 50 -6 29 26 -13 20 -14 29 -5 44 14 23 0 34 -43 34 -24 0 -31 5 -33 23 -4 27 22 40 43 22 11 -9 18 -10 29 -1 21 18 49 -14 41 -46 -8 -35 11 -56 36 -40 23 14 39 -3 39 -43 0 -103 11 -140 36 -119 12 9 12 14 0 31 -8 10 -11 28 -9 39 3 11 0 31 -7 44 -10 19 -10 28 -1 38 15 19 -7 38 -39 35 -26 -3 -46 22 -37 46 6 14 10 15 29 4 13 -6 31 -11 41 -9 10 1 25 -3 32 -9 12 -10 16 -9 21 4 9 23 4 26 -55 31 -28 3 -60 9 -70 14 -10 6 -21 8 -23 5 -3 -3 -36 0 -74 6 -38 6 -92 11 -121 11 -43 0 -53 4 -58 20 -12 36 20 54 45 24 9 -11 16 -12 25 -5 7 6 24 8 37 5 12 -3 48 -8 78 -11 67 -6 98 -11 128 -20 12 -3 22 -2 22 4 0 17 -29 34 -49 27 -10 -3 -22 -2 -25 3 -3 5 -25 10 -47 10 -23 1 -59 4 -79 7 -34 6 -93 13 -165 19 -16 2 -36 4 -42 4 -16 2 -17 38 -3 47 6 4 21 0 33 -8 17 -11 26 -11 39 -3 14 8 21 7 35 -6 15 -16 17 -16 28 -1 10 13 15 14 36 2 13 -7 34 -12 46 -10 11 1 24 -3 28 -9 5 -8 11 -8 21 1 20 17 7 29 -31 29 -19 0 -36 4 -39 9 -3 4 -31 7 -63 6 -32 -1 -62 0 -68 4 -5 3 -26 6 -45 6 -34 0 -35 1 -32 34 1 18 -2 39 -8 46 -6 7 -8 19 -5 26 3 8 1 21 -5 29 -7 12 -12 12 -22 2 -9 -9 -9 -15 -1 -23 7 -7 9 -24 6 -39 -3 -15 0 -31 6 -34 23 -15 11 -36 -20 -36 -30 0 -31 1 -26 35 3 19 1 37 -5 41 -5 3 -8 14 -5 24 3 10 1 38 -5 62 -5 23 -10 54 -11 68 -2 21 -7 25 -37 25 -32 0 -35 2 -32 27 l3 27 -177 3 c-179 3 -209 -1 -187 -23 8 -8 17 -9 25 -3 14 11 160 10 177 0 6 -4 19 -3 29 3 10 5 24 6 32 1 8 -5 22 -4 33 2 14 7 23 6 34 -5 22 -22 7 -39 -28 -32 -38 8 -56 -3 -32 -20 15 -11 15 -15 4 -29 -11 -13 -11 -19 -1 -31 10 -12 10 -18 0 -30 -19 -22 5 -48 30 -33 26 17 50 3 50 -29 0 -16 1 -39 2 -53 3 -21 -1 -25 -22 -22 -59 6 -211 8 -219 2 -5 -3 -1 -15 9 -28 19 -23 19 -23 30 -2 13 24 33 26 50 5 8 -9 17 -12 24 -7 6 5 38 9 71 8 57 -1 60 -2 60 -26 0 -20 -5 -25 -25 -23 -14 1 -78 2 -142 3 -102 2 -118 5 -118 19 0 9 4 23 10 31 5 9 5 19 -1 27 -7 8 -7 19 1 33 16 30 0 46 -30 30 -20 -11 -21 -13 -5 -30 21 -23 12 -40 -20 -40 -23 0 -24 2 -19 58 2 31 4 80 5 107 1 28 5 55 11 62 16 20 0 35 -23 22 -17 -8 -18 -13 -8 -25 10 -12 9 -18 -4 -31 -15 -15 -15 -17 0 -28 14 -10 13 -14 -8 -33 -12 -12 -18 -22 -12 -22 7 0 11 -19 10 -51 -2 -37 -7 -53 -21 -61 -25 -14 -40 3 -30 33 4 13 7 28 6 32 -2 5 2 34 8 64 10 58 6 83 -13 64 -18 -18 -47 -13 -47 7 0 10 5 23 11 29 8 8 8 13 0 17 -17 11 -31 -3 -31 -29 0 -13 -5 -27 -10 -30 -6 -4 -8 -16 -5 -26 4 -11 1 -27 -6 -35 -9 -11 -9 -18 -1 -26 16 -16 32 0 32 33 0 18 6 32 16 36 21 8 38 -12 29 -34 -5 -10 -9 -40 -9 -68 -1 -58 -10 -75 -37 -75 -22 0 -26 29 -7 48 16 16 -4 37 -26 29 -11 -4 -13 -15 -9 -41 l6 -36 -46 0 c-45 0 -68 -12 -47 -25 14 -9 12 -45 -2 -46 -7 -1 -26 -3 -43 -5 -16 -1 -57 -5 -91 -7 -33 -2 -70 -9 -81 -16 -17 -8 -22 -8 -27 5 -6 16 9 54 22 54 5 0 13 -5 20 -12 10 -10 16 -8 29 5 13 13 14 20 5 29 -9 9 -15 9 -24 0 -7 -7 -18 -12 -25 -12 -16 0 -17 32 -2 47 6 6 8 16 4 23 -12 19 -37 -10 -31 -36 3 -12 0 -26 -7 -33 -8 -6 -12 -23 -9 -39 3 -21 -1 -31 -14 -36 -25 -10 -38 8 -25 32 6 11 11 32 11 46 0 14 5 28 10 31 6 3 10 15 10 26 0 10 5 28 12 39 7 10 9 22 5 26 -11 12 -38 -18 -32 -36 3 -9 -1 -23 -10 -30 -9 -7 -13 -21 -9 -34 3 -14 -1 -27 -9 -35 -8 -6 -13 -21 -10 -31 7 -26 -13 -50 -41 -50 -36 1 -110 -12 -136 -23 -8 -3 -41 -13 -74 -22 -32 -9 -83 -27 -114 -41 -30 -13 -57 -23 -59 -21 -2 2 6 15 17 30 23 29 150 78 251 97 35 7 68 17 74 21 14 13 25 11 25 -6 0 -23 14 -18 27 10 13 28 0 43 -22 25 -7 -6 -19 -10 -27 -9 -7 1 -20 0 -28 -3 -8 -3 -46 -13 -84 -22 -38 -10 -99 -31 -134 -47 -36 -16 -67 -29 -69 -29 -2 0 1 9 8 21 15 30 147 86 239 103 8 2 23 7 33 11 10 4 21 5 24 1 9 -9 33 14 33 32 0 12 -3 13 -12 4 -7 -7 -19 -12 -29 -12 -25 0 -159 -45 -207 -69 -54 -27 -68 -18 -27 17 17 14 29 31 27 37 -1 7 7 20 18 30 11 10 20 23 20 30 0 6 44 58 98 115 99 106 222 205 283 230 19 8 36 17 39 20 8 9 130 66 170 79 19 6 63 20 97 31 34 11 76 23 95 26 105 15 101 16 94 -3 -4 -14 -2 -13 9 3 14 20 24 21 146 19 94 -1 133 -5 139 -14z m88 -334 c4 -21 -23 -33 -41 -19 -8 7 -18 7 -27 2 -11 -7 -11 -11 -1 -24 15 -18 8 -46 -12 -46 -23 0 -41 28 -28 43 8 10 7 17 -1 25 -23 23 -1 39 53 38 43 -1 54 -5 57 -19z m1 -46 c8 -5 11 -16 6 -30 -4 -13 -1 -28 5 -36 10 -12 10 -18 0 -30 -10 -13 -9 -19 5 -35 21 -23 9 -44 -21 -38 -14 2 -19 12 -20 35 0 17 -6 38 -12 46 -10 11 -9 17 4 28 14 12 14 14 -1 25 -33 24 -1 57 34 35z m-357 -194 c12 -19 -4 -37 -33 -37 -31 0 -35 10 -19 40 10 19 38 17 52 -3z m-232 -23 c0 -20 -5 -24 -30 -24 -36 0 -40 22 -8 44 26 19 38 13 38 -20z m158 9 c3 -17 -3 -24 -22 -29 -15 -3 -32 -1 -40 5 -10 8 -16 9 -21 1 -3 -5 -17 -10 -31 -10 -19 0 -24 5 -24 25 0 21 5 25 30 25 17 0 30 -5 30 -12 0 -8 7 -6 18 5 23 24 56 18 60 -10z m457 -8 c0 -31 -49 -28 -53 3 -3 20 0 23 25 20 20 -2 28 -8 28 -23z m75 6 c15 -29 13 -33 -22 -29 -25 2 -34 8 -36 26 -3 18 1 22 22 22 15 0 30 -8 36 -19z m-622 -73 c3 -27 -17 -42 -43 -32 -20 8 -19 41 3 53 24 15 37 8 40 -21z m80 1 c2 -20 -2 -28 -19 -32 -29 -8 -39 -1 -39 28 0 42 53 46 58 4z m82 10 c14 -24 13 -25 -22 -34 -21 -5 -29 -3 -34 9 -16 42 35 65 56 25z m79 4 c9 -17 10 -17 16 0 9 22 53 23 62 1 5 -15 7 -15 15 0 11 20 42 21 58 1 25 -30 7 -37 -100 -37 l-105 -1 -3 27 c-3 22 1 26 22 26 14 0 29 -8 35 -17z m232 -4 c14 -26 0 -42 -32 -37 -41 6 -34 57 8 58 7 0 17 -9 24 -21z m-622 -11 l8 -22 12 22 c16 30 55 26 59 -5 4 -26 8 -25 -83 -30 -96 -5 -156 -11 -162 -17 -3 -3 -13 -1 -22 3 -10 6 -23 4 -35 -5 -23 -16 -36 -10 -36 16 0 28 34 44 51 24 11 -14 13 -14 21 0 5 10 22 16 41 15 52 0 105 6 113 14 13 13 24 7 33 -15z m705 6 c9 -24 7 -31 -10 -38 -22 -9 -54 11 -54 34 0 15 7 20 29 20 17 0 31 -6 35 -16z m71 -14 c0 -33 -40 -41 -50 -11 -9 28 2 43 28 39 16 -2 22 -10 22 -28z m69 14 c26 -25 20 -44 -14 -44 -27 0 -30 3 -30 30 0 34 19 40 44 14z m-1117 -29 c3 -9 -1 -23 -10 -33 -10 -11 -13 -27 -10 -45 3 -15 0 -33 -6 -41 -9 -10 -9 -16 -1 -21 6 -4 8 -16 4 -28 -9 -25 -12 -68 -16 -182 -3 -74 -5 -80 -25 -83 -18 -3 -23 1 -23 20 0 13 5 29 12 36 8 8 8 15 -2 27 -10 12 -10 21 -2 39 6 13 8 33 5 45 -3 11 -2 29 2 38 3 10 8 46 11 81 2 35 8 71 14 81 5 10 7 21 3 24 -3 3 -3 18 1 32 7 28 33 34 43 10z m-61 -10 c9 -22 -16 -47 -40 -41 -11 3 -25 1 -31 -4 -7 -5 -29 -12 -51 -14 -21 -2 -46 -6 -54 -9 -8 -2 -44 -12 -80 -21 -70 -18 -140 -47 -140 -58 0 -4 21 0 48 8 26 8 74 21 107 30 33 8 68 19 78 25 33 18 50 -10 23 -40 -10 -11 -12 -22 -6 -31 14 -23 37 5 32 40 -3 22 0 32 13 36 23 9 38 -16 20 -36 -8 -9 -11 -26 -8 -43 3 -15 0 -34 -8 -43 -10 -13 -10 -17 1 -24 21 -13 32 -1 27 29 -6 31 8 61 28 61 18 0 20 -41 4 -57 -8 -8 -8 -17 1 -33 9 -16 9 -25 0 -35 -6 -8 -9 -23 -5 -35 9 -30 -3 -60 -26 -60 -21 0 -26 29 -9 60 7 13 6 21 -5 30 -12 10 -15 7 -19 -12 -3 -12 -4 -34 -3 -47 2 -23 -3 -25 -91 -42 -52 -10 -110 -21 -130 -24 -45 -7 -96 -22 -140 -42 -38 -18 -48 -13 -32 17 9 17 59 48 90 55 3 1 21 5 40 9 19 5 40 11 45 14 6 4 24 7 40 7 17 1 36 4 42 8 6 4 19 4 28 1 16 -6 34 9 35 29 0 10 -71 -2 -86 -14 -6 -5 -14 -6 -17 -3 -7 7 -139 -31 -180 -53 -36 -18 -42 -12 -25 24 8 15 13 36 10 46 -4 19 23 57 40 57 5 0 29 9 53 20 24 11 59 22 77 24 18 3 33 6 33 7 0 1 9 3 20 5 73 14 85 18 85 30 0 7 -4 16 -10 19 -5 3 -10 2 -10 -2 0 -5 -35 -16 -77 -26 -43 -9 -102 -29 -132 -42 -69 -32 -85 -27 -43 14 36 36 39 43 17 35 -26 -10 -17 23 13 44 31 22 157 67 217 77 22 4 46 13 54 19 11 8 15 8 18 -1 4 -10 10 -10 26 2 14 10 25 11 32 5 9 -7 16 -5 25 5 16 19 29 19 36 0z m721 -32 c7 -18 -15 -43 -38 -43 -14 0 -19 7 -19 28 0 16 3 31 6 34 9 10 45 -4 51 -19z m113 12 c39 0 45 -3 48 -23 4 -28 -21 -39 -56 -23 -18 9 -28 9 -30 2 -8 -23 -62 -4 -62 20 0 16 32 39 43 32 7 -4 32 -8 57 -8z m-506 -22 c8 -20 -11 -43 -34 -43 -25 0 -31 24 -14 48 16 23 39 20 48 -5z m74 1 c4 -25 -22 -49 -43 -40 -31 12 -9 70 25 64 8 -2 16 -13 18 -24z m77 -4 c0 -20 -6 -26 -28 -28 -32 -4 -46 20 -26 44 19 24 54 14 54 -16z m80 0 c0 -16 -6 -26 -18 -28 -32 -6 -45 5 -39 33 4 21 9 26 31 23 20 -2 26 -8 26 -28z m85 5 c0 -18 -7 -26 -26 -31 -31 -8 -48 7 -39 35 4 15 15 21 36 21 24 0 29 -4 29 -25z m315 -5 c0 -30 -35 -40 -54 -16 -20 24 -6 48 26 44 22 -2 28 -8 28 -28z m83 -2 c3 -25 0 -28 -27 -28 -21 0 -32 6 -36 20 -9 28 3 42 33 38 21 -2 28 -9 30 -30z m56 26 c9 -3 16 -17 16 -30 0 -19 -5 -24 -25 -24 -21 0 -25 5 -25 30 0 31 6 35 34 24z m94 -35 c2 -18 -3 -29 -15 -33 -20 -8 -43 17 -43 47 0 14 6 18 28 15 21 -2 28 -9 30 -29z m-1010 -7 c2 -13 -3 -25 -13 -28 -12 -5 -13 -10 -4 -20 18 -21 7 -59 -18 -62 -19 -3 -23 1 -23 22 0 14 4 27 9 30 4 3 6 17 4 31 -3 13 -3 32 1 41 9 22 40 13 44 -14z m72 9 c0 -24 -23 -43 -44 -35 -30 11 -14 54 20 54 17 0 24 -6 24 -19z m1014 4 c7 -20 -3 -45 -18 -45 -18 0 -36 21 -36 42 0 23 45 25 54 3z m67 -1 c10 -12 10 -20 1 -35 -17 -27 -5 -42 28 -35 32 6 54 -13 48 -41 -2 -11 -11 -17 -23 -15 -11 2 -36 4 -55 5 -33 2 -35 4 -36 37 0 19 -4 43 -8 53 -18 39 18 63 45 31z m-1216 -4 c10 -16 -14 -50 -35 -50 -14 0 -20 7 -20 23 0 13 3 27 7 30 10 10 41 8 48 -3z m-135 -29 c0 -21 -23 -44 -33 -34 -11 10 -8 38 5 51 14 14 28 6 28 -17z m655 -36 c0 -12 -10 -21 -27 -26 -31 -8 -38 -4 -38 26 0 30 7 34 38 26 17 -5 27 -14 27 -26z m69 29 c24 -9 19 -43 -6 -53 -30 -11 -38 -6 -38 30 0 29 12 35 44 23z m-234 -28 c0 -33 -25 -53 -45 -36 -16 13 -20 42 -8 53 3 4 17 7 30 7 18 0 23 -6 23 -24z m86 9 c8 -20 -13 -45 -38 -45 -21 0 -33 22 -24 45 7 20 55 19 62 0z m244 3 c0 -9 3 -9 12 0 7 7 25 12 40 12 23 0 28 -4 28 -24 0 -28 -33 -44 -54 -27 -10 8 -22 8 -42 1 -32 -13 -61 7 -51 34 7 19 67 22 67 4z m158 -15 c-2 -22 -8 -28 -28 -28 -20 0 -26 6 -28 28 -3 24 0 27 28 27 28 0 31 -3 28 -27z m80 -6 c3 -26 1 -28 -25 -25 -22 2 -29 9 -31 31 -3 26 -1 28 25 25 22 -2 29 -9 31 -31z m117 19 c36 -1 40 -4 40 -26 0 -31 -33 -40 -52 -14 -13 17 -13 17 -26 0 -26 -36 -69 -3 -53 40 4 11 12 13 28 8 13 -4 41 -8 63 -8z m-767 -24 c-3 -28 -35 -43 -48 -22 -5 8 -13 8 -33 -1 -19 -8 -30 -9 -39 -1 -9 7 -18 7 -32 -3 -16 -12 -16 -16 -4 -34 l14 -20 18 20 c9 11 22 19 29 16 17 -5 21 -45 6 -63 -10 -13 -10 -17 0 -23 7 -5 11 -19 9 -32 -2 -18 -10 -25 -30 -27 -24 -3 -28 0 -28 20 0 13 5 29 12 36 8 8 8 15 -2 27 -12 14 -15 14 -30 0 -20 -18 -40 -20 -41 -2 -2 20 3 122 6 127 2 3 47 6 100 7 l96 2 -3 -27z m876 12 c19 -19 20 -26 4 -42 -9 -9 -8 -18 2 -37 12 -22 12 -28 -1 -41 -9 -9 -23 -12 -33 -8 -14 5 -17 15 -13 43 3 20 2 45 -2 56 -16 41 12 60 43 29z m-1167 -5 c14 -14 5 -46 -15 -54 -22 -8 -34 8 -26 39 7 27 23 33 41 15z m452 -53 c28 -33 -27 -74 -57 -44 -16 16 -15 23 4 42 19 20 38 20 53 2z m77 0 c15 -12 17 -18 8 -33 -15 -24 -58 -24 -62 0 -9 44 18 59 54 33z m87 -8 c8 -12 7 -21 -2 -32 -29 -35 -69 -8 -55 36 7 23 42 21 57 -4z m83 0 l6 -21 18 22 c23 31 54 24 58 -12 4 -33 -21 -46 -51 -28 -14 9 -22 10 -30 2 -6 -6 -21 -11 -33 -11 -27 0 -41 34 -24 55 18 22 48 18 56 -7z m159 6 c9 -9 14 -21 12 -27 -6 -18 -33 -31 -51 -24 -19 7 -22 53 -3 60 20 9 25 8 42 -9z m-562 -6 c11 -34 -17 -64 -48 -52 -15 6 -21 45 -8 57 11 12 51 8 56 -5z m75 -15 c-2 -22 -9 -29 -30 -31 -24 -3 -28 0 -28 21 0 30 7 37 37 37 21 0 24 -4 21 -27z m570 -5 c3 -24 0 -28 -23 -28 -27 0 -41 20 -31 46 10 27 51 13 54 -18z m83 11 c16 -31 -9 -56 -40 -40 -20 11 -28 41 -14 54 13 14 43 6 54 -14z m73 -1 c14 -20 14 -24 0 -39 -15 -17 -15 -20 0 -35 24 -23 16 -48 -15 -52 -26 -3 -27 -1 -31 60 -7 83 14 112 46 66z m-1030 -11 c8 -12 7 -21 -5 -33 -13 -12 -14 -20 -5 -40 13 -29 22 -30 29 -4 7 26 44 26 52 0 9 -30 -2 -40 -45 -40 -37 0 -66 -20 -42 -28 7 -2 12 -11 12 -20 0 -13 4 -11 16 6 21 30 50 29 56 -2 8 -38 -2 -44 -67 -43 -58 2 -60 3 -57 27 1 14 4 59 5 100 3 98 21 125 51 77z m-68 -2 c4 -8 -1 -26 -10 -40 -10 -15 -12 -26 -6 -30 16 -10 12 -52 -6 -59 -9 -3 -20 -4 -25 -1 -9 6 -5 117 5 134 10 16 36 13 42 -4z m452 -73 c3 -30 1 -32 -27 -32 -28 0 -31 3 -31 29 0 52 53 55 58 3z m76 22 c18 -18 18 -17 10 -38 -4 -10 -18 -16 -35 -16 -25 0 -29 4 -29 28 0 45 24 56 54 26z m84 4 c20 -20 14 -47 -12 -54 -14 -3 -30 -3 -35 1 -24 14 -4 65 24 65 6 0 16 -5 23 -12z m85 -9 c15 -24 1 -49 -27 -49 -29 0 -44 33 -25 56 15 18 38 15 52 -7z m85 -16 c3 -31 1 -33 -26 -33 -34 0 -47 22 -31 51 17 33 53 21 57 -18z m82 16 c17 -30 5 -49 -30 -49 -27 0 -30 3 -30 29 0 43 41 56 60 20z m-574 -15 c10 -39 -30 -60 -55 -30 -9 11 -10 20 -1 35 16 30 48 27 56 -5z m84 -3 c0 -16 -6 -31 -12 -34 -10 -4 -10 -7 0 -18 18 -19 15 -57 -5 -62 -10 -2 -43 -3 -73 -3 -59 1 -76 19 -45 49 19 20 44 12 55 -17 8 -20 8 -20 19 7 6 15 16 27 23 27 8 1 7 6 -4 14 -10 7 -18 25 -18 40 0 22 4 26 30 26 26 0 30 -3 30 -29z m575 9 c9 -27 -1 -40 -31 -40 -26 0 -40 20 -30 45 8 23 53 19 61 -5z m73 8 c19 -19 14 -46 -9 -53 -28 -9 -53 16 -44 44 7 23 34 28 53 9z m-497 -68 c5 0 9 -13 9 -30 0 -27 -3 -30 -30 -30 -23 0 -30 5 -30 19 0 32 12 52 27 47 8 -3 19 -6 24 -6z m84 -6 c25 -25 15 -49 -23 -52 -28 -3 -32 0 -32 20 0 23 16 48 31 48 4 0 15 -7 24 -16z m-157 -26 c3 -25 0 -28 -27 -28 -28 0 -31 3 -31 31 0 27 3 30 28 27 21 -2 28 -9 30 -30z m250 0 c3 -25 0 -28 -27 -28 -28 0 -31 3 -31 31 0 27 3 30 28 27 21 -2 28 -9 30 -30z m82 2 c0 -27 -3 -30 -29 -30 -35 0 -42 8 -34 38 4 16 13 22 34 22 26 0 29 -4 29 -30z m84 14 c13 -34 7 -44 -29 -44 -32 0 -35 2 -35 30 0 26 3 30 29 30 17 0 31 -6 35 -16z m82 -10 c8 -30 -10 -47 -41 -38 -28 9 -28 10 -21 39 9 36 53 35 62 -1z m68 13 c26 -19 17 -51 -17 -55 -24 -3 -27 0 -27 26 0 43 13 52 44 29z m-806 -28 c3 -28 -16 -43 -43 -33 -15 6 -21 45 -8 58 16 16 48 1 51 -25z m890 19 c19 -19 14 -46 -9 -53 -28 -9 -53 16 -44 44 7 23 34 28 53 9z m-1110 -27 c4 -23 -11 -41 -35 -41 -14 0 -18 52 -6 64 14 14 38 0 41 -23z m-134 -17 c7 -22 -16 -40 -35 -28 -13 8 -11 52 4 57 15 6 23 -2 31 -29z m-59 5 c9 -27 -19 -59 -36 -42 -15 15 -3 63 16 63 7 0 17 -10 20 -21z m-112 -1 c3 -10 8 -10 21 1 20 17 40 3 34 -25 -2 -14 -16 -21 -53 -27 -109 -17 -211 -40 -237 -53 -15 -8 -34 -14 -43 -14 -18 0 -20 33 -2 47 22 18 144 53 198 57 30 2 55 9 57 15 5 15 19 14 25 -1z m685 -55 l3 -33 -88 -2 c-48 -1 -104 -2 -123 -2 -19 -1 -41 -5 -48 -9 -31 -20 -57 38 -27 63 16 13 59 4 50 -11 -4 -5 -3 -15 1 -21 6 -9 10 -5 14 12 8 34 47 40 59 8 l8 -23 7 23 c10 30 49 30 63 0 11 -23 11 -23 22 5 8 21 17 28 34 25 17 -2 23 -11 25 -35z m80 0 c3 -31 1 -33 -27 -33 -29 0 -31 3 -31 36 0 33 2 35 28 32 22 -2 28 -8 30 -35z m82 2 c0 -32 -2 -35 -30 -35 -26 0 -30 4 -30 28 0 35 6 42 37 42 20 0 23 -5 23 -35z m86 9 c8 -31 -6 -47 -37 -42 -43 6 -38 68 5 68 19 0 27 -7 32 -26z m80 2 c8 -32 -2 -46 -31 -46 -29 0 -39 14 -31 46 5 17 13 24 31 24 18 0 26 -7 31 -24z m84 -11 c0 -32 -2 -35 -29 -35 -36 0 -41 7 -34 43 4 22 11 27 34 27 26 0 29 -3 29 -35z m84 10 c9 -35 1 -45 -35 -45 -27 0 -29 3 -29 35 0 32 3 35 29 35 23 0 30 -6 35 -25z m80 3 c10 -40 7 -48 -23 -48 -30 0 -46 26 -34 56 9 23 50 17 57 -8z m84 -22 c3 -23 0 -26 -27 -26 -27 0 -31 3 -31 28 0 36 7 43 33 33 14 -5 23 -18 25 -35z m77 -1 c0 -22 -5 -31 -20 -33 -36 -4 -51 13 -37 43 18 38 57 32 57 -10z m108 23 c32 1 39 -2 49 -26 l11 -27 6 25 c6 23 12 26 41 22 6 -1 15 -12 20 -24 l9 -23 0 23 c1 33 47 31 55 -3 4 -14 4 -30 1 -35 -7 -12 -39 -13 -49 -3 -4 4 -37 8 -74 8 -58 0 -68 3 -77 22 l-11 21 -9 -21 c-13 -30 -49 -29 -53 1 -5 36 5 55 26 46 9 -4 34 -7 55 -6z m-1227 -22 c8 -34 -2 -46 -39 -45 -18 0 -41 -1 -52 -3 -16 -2 -21 3 -23 30 -3 29 -1 32 22 32 19 0 26 -5 26 -20 0 -11 5 -20 10 -20 6 0 10 9 10 19 0 17 11 28 32 30 4 1 10 -10 14 -23z m74 -5 c0 -21 -6 -32 -21 -36 -28 -9 -43 8 -35 39 5 19 13 26 31 26 21 0 25 -5 25 -29z m-210 -16 c0 -28 -4 -35 -20 -35 -15 0 -20 7 -20 29 0 26 9 38 33 40 4 1 7 -15 7 -34z m1614 19 c9 -8 16 -24 16 -35 0 -16 -6 -20 -27 -17 -28 3 -40 25 -29 54 7 18 21 18 40 -2z m-1666 -20 c3 -23 -21 -49 -38 -39 -11 7 -14 48 -3 59 13 13 38 1 41 -20z m1734 7 c12 -19 12 -19 26 0 10 15 17 18 25 10 6 -6 25 -11 43 -11 17 0 44 -4 60 -9 16 -5 61 -14 99 -21 88 -16 145 -43 145 -70 0 -25 -3 -25 -76 0 -53 19 -229 47 -324 53 -35 2 -48 21 -36 53 8 20 24 18 38 -5z m-1792 -15 c0 -30 -6 -34 -61 -41 -83 -9 -210 -35 -244 -49 -18 -8 -36 -12 -39 -8 -12 12 -5 42 12 51 38 20 237 64 315 70 12 1 17 -6 17 -23z m545 -51 c0 -25 -4 -31 -27 -33 -19 -2 -28 2 -33 18 -8 27 12 52 39 48 16 -2 21 -10 21 -33z m85 0 c0 -32 -2 -35 -30 -35 -28 0 -30 3 -30 35 0 32 2 35 30 35 28 0 30 -3 30 -35z m80 0 c0 -32 -3 -35 -29 -35 -21 0 -30 6 -34 21 -9 33 3 49 34 49 26 0 29 -3 29 -35z m84 19 c9 -24 -12 -54 -39 -54 -22 0 -25 4 -25 35 0 32 3 35 29 35 17 0 31 -6 35 -16z m86 -7 c0 -42 -50 -66 -64 -31 -15 39 -7 54 29 54 30 0 35 -3 35 -23z m158 -9 c-2 -25 -8 -34 -26 -36 -13 -2 -24 3 -27 12 -15 49 -18 51 -24 21 -8 -38 -44 -47 -61 -15 -21 40 -7 50 70 50 l71 0 -3 -32z m87 21 c4 -5 4 -21 1 -35 -5 -20 -12 -25 -34 -22 -22 2 -28 9 -30 36 -3 30 -1 32 27 32 16 0 33 -5 36 -11z m80 -24 c0 -25 -4 -31 -26 -33 -23 -3 -27 1 -31 28 -5 37 -1 42 32 38 20 -2 25 -8 25 -33z m69 29 c10 -4 16 -18 16 -35 0 -26 -4 -29 -30 -29 -28 0 -30 3 -30 35 0 36 10 42 44 29z m-1036 -16 c17 -17 15 -55 -4 -62 -23 -9 -34 2 -34 33 0 40 15 52 38 29z m77 -23 c0 -23 -4 -30 -20 -30 -21 0 -31 25 -21 51 11 28 41 12 41 -21z m153 8 c-4 -36 -46 -46 -55 -13 -6 21 -6 21 -17 -2 -16 -32 -44 -35 -55 -6 -15 40 -4 48 66 48 64 0 64 0 61 -27z m977 -8 c0 -25 -4 -30 -27 -33 -22 -3 -28 1 -28 17 0 11 -4 23 -10 26 -5 3 -10 0 -10 -8 0 -21 -25 -38 -44 -31 -9 4 -16 18 -16 34 l0 28 68 -1 67 -2 0 -30z m59 29 c10 -4 16 -18 16 -36 0 -26 -3 -29 -27 -26 -28 3 -40 25 -29 54 6 15 16 17 40 8z m-1326 -33 c5 -32 -13 -48 -33 -31 -18 15 -20 46 -2 53 20 9 32 2 35 -22z m1418 3 c8 -30 -6 -47 -32 -42 -13 2 -20 13 -22 36 -3 28 0 32 22 32 19 0 27 -7 32 -26z m-1478 -9 c3 -28 -13 -49 -32 -42 -10 4 -16 18 -16 37 0 27 3 31 23 28 13 -2 23 -11 25 -23z m1552 -10 c0 -28 -4 -35 -20 -35 -20 0 -40 27 -40 54 0 11 9 16 30 16 28 0 30 -3 30 -35z m70 14 c16 -29 5 -51 -22 -47 -18 2 -24 11 -26 36 -3 27 0 32 17 32 11 0 25 -9 31 -21z m-1682 -17 c-4 -35 -35 -42 -47 -10 -9 22 -10 22 -10 2 -1 -28 -10 -35 -32 -24 -12 7 -20 6 -24 -1 -4 -6 -13 -8 -20 -5 -7 2 -30 1 -51 -4 -22 -5 -55 -11 -74 -14 -19 -3 -57 -12 -85 -21 -65 -19 -65 -19 -65 9 0 21 8 27 53 42 53 18 64 20 155 31 29 3 54 9 56 12 3 3 36 7 76 8 l71 3 -3 -28z m1747 -19 c0 -22 3 -45 8 -49 11 -11 9 -62 -3 -69 -21 -13 -41 17 -40 59 1 23 -2 56 -6 74 -6 31 -5 33 17 30 21 -3 24 -8 24 -45z m60 37 c5 -7 11 -8 19 -1 7 6 17 6 26 1 8 -6 31 -10 50 -10 48 0 211 -46 221 -62 23 -36 3 -41 -82 -19 -41 10 -104 22 -141 26 -38 4 -68 12 -68 18 0 7 -4 7 -12 -1 -7 -7 -18 -12 -25 -12 -15 0 -36 47 -27 61 7 12 31 11 39 -1z m-1089 -40 c9 0 14 -11 14 -29 0 -21 -6 -30 -22 -34 -31 -8 -38 -1 -38 40 0 28 3 34 16 29 9 -3 22 -6 30 -6z m-392 -6 c21 -8 20 -50 -1 -62 -14 -9 -14 -11 6 -21 17 -10 26 -10 37 -1 11 10 19 9 38 -3 21 -14 26 -14 36 -2 17 21 37 19 50 -4 18 -34 2 -54 -38 -47 -20 3 -41 1 -48 -5 -9 -7 -19 -6 -33 3 -30 18 -46 0 -30 -35 14 -32 29 -35 29 -7 0 28 38 26 49 -2 12 -30 5 -35 -56 -40 -61 -6 -74 3 -63 42 4 15 5 32 0 36 -13 15 -19 143 -6 148 6 2 12 5 13 5 1 1 8 -2 17 -5z m81 -29 c0 -36 -28 -46 -44 -16 -15 27 -3 53 23 49 16 -2 21 -10 21 -33z m83 3 c-2 -28 -7 -33 -28 -33 -21 0 -26 5 -28 33 -3 30 -1 32 28 32 29 0 31 -2 28 -32z m82 3 c0 -34 -12 -45 -40 -36 -14 4 -20 15 -20 36 0 26 3 29 30 29 27 0 30 -3 30 -29z m80 0 c0 -34 -12 -45 -40 -36 -20 6 -35 38 -25 55 3 5 19 10 36 10 25 0 29 -4 29 -29z m168 3 c-3 -31 -32 -54 -47 -39 -5 6 -13 22 -16 38 -7 26 -5 27 30 27 33 0 36 -2 33 -26z m80 0 c-6 -56 -68 -53 -68 2 0 21 5 24 36 24 32 0 35 -2 32 -26z m82 -4 c0 -27 -3 -30 -30 -30 -27 0 -30 3 -30 30 0 27 3 30 30 30 27 0 30 -3 30 -30z m80 21 c0 -5 3 -16 6 -24 7 -19 -28 -40 -50 -31 -10 4 -16 18 -16 35 0 26 4 29 30 29 17 0 30 -4 30 -9z m78 -23 c-5 -57 -57 -48 -58 10 0 18 5 22 31 22 28 0 30 -2 27 -32z m89 16 c9 -24 -10 -49 -38 -49 -24 0 -36 23 -25 51 7 19 55 18 63 -2z m76 -5 c15 -24 1 -49 -28 -49 -22 0 -25 4 -25 36 0 31 3 35 21 32 12 -2 27 -10 32 -19z m-1179 -12 c8 -12 7 -22 -1 -37 -7 -10 -9 -21 -4 -24 15 -10 23 -59 11 -66 -9 -6 -7 -15 5 -34 17 -25 17 -28 2 -44 -26 -25 -37 -4 -41 81 -2 43 -6 81 -10 84 -8 8 -8 48 1 57 10 9 25 3 37 -17z m73 7 c8 -20 -8 -48 -30 -52 -18 -4 -34 39 -22 57 10 17 45 13 52 -5z m70 0 c8 -20 -8 -48 -30 -52 -18 -4 -34 39 -22 57 10 17 45 13 52 -5z m1118 5 c4 -5 4 -21 1 -35 -5 -17 -13 -24 -31 -24 -18 0 -26 7 -31 24 -8 32 2 46 31 46 13 0 27 -5 30 -11z m73 -31 c3 -35 1 -38 -22 -38 -19 0 -27 7 -32 25 -9 36 2 57 28 53 19 -2 24 -10 26 -40z m-1393 11 c9 -29 -18 -57 -38 -41 -21 18 -45 -12 -27 -33 7 -9 10 -27 7 -44 -3 -15 -2 -32 3 -37 4 -5 10 -18 12 -29 3 -18 -3 -20 -52 -22 -77 -3 -173 -12 -252 -23 -95 -14 -98 -14 -98 15 0 26 -6 24 140 45 82 12 89 15 72 32 -8 8 -15 8 -25 0 -8 -7 -16 -10 -19 -7 -3 3 -42 -2 -88 -11 -85 -16 -106 -11 -94 19 9 24 71 37 234 52 9 0 21 4 28 9 7 4 19 3 26 -3 9 -7 16 -7 24 1 17 17 35 -3 30 -33 -3 -21 -8 -23 -45 -22 -45 1 -63 -11 -44 -30 9 -9 14 -8 21 2 6 11 12 12 22 3 11 -9 17 -9 27 1 10 9 16 7 31 -10 l18 -22 5 26 c3 15 -2 37 -10 50 -13 19 -13 26 -3 38 19 22 -3 44 -25 25 -12 -10 -18 -10 -31 1 -10 8 -18 9 -22 2 -4 -5 -20 -10 -37 -11 -52 -1 -118 -11 -178 -27 -76 -20 -79 -19 -75 12 3 29 23 38 108 48 25 3 62 9 84 14 21 5 56 8 77 7 21 -2 39 0 39 4 0 12 90 9 90 -3 0 -7 5 -4 11 6 14 24 46 21 54 -4z m1470 -19 c0 -31 -3 -35 -25 -35 -22 0 -25 5 -28 38 -3 37 -2 38 25 35 25 -3 28 -7 28 -38z m83 -6 c2 -21 -2 -33 -12 -37 -29 -11 -46 4 -46 40 0 32 2 34 28 31 22 -2 28 -9 30 -34z m70 -7 c3 -35 1 -38 -20 -35 -19 2 -24 10 -26 41 -3 35 -1 38 20 35 19 -2 24 -10 26 -41z m127 23 c5 -8 11 -7 21 1 7 6 22 8 31 4 10 -4 40 -8 68 -11 56 -4 141 -22 168 -36 21 -11 23 -48 2 -48 -7 0 -40 7 -72 15 -71 19 -204 27 -220 13 -19 -16 -33 0 -33 38 0 34 20 48 35 24z m-1250 -65 c0 -25 -4 -30 -25 -30 -16 0 -26 6 -28 18 -6 30 6 49 30 45 18 -2 23 -9 23 -33z m92 19 c8 -22 -9 -48 -35 -52 -16 -2 -23 3 -28 22 -3 14 -3 30 1 35 10 17 55 13 62 -5z m81 -16 c3 -22 -2 -29 -22 -34 -34 -8 -46 2 -46 37 0 28 2 30 33 27 26 -2 33 -8 35 -30z m80 0 c2 -19 -2 -28 -17 -33 -29 -9 -41 1 -41 36 0 27 3 30 28 27 21 -2 28 -9 30 -30z m77 3 c0 -34 -30 -51 -51 -29 -25 24 -10 60 24 56 21 -2 27 -8 27 -27z m80 -6 c0 -23 -5 -31 -21 -33 -27 -4 -45 18 -37 47 4 17 12 21 32 19 22 -2 26 -8 26 -33z m80 0 c0 -25 -4 -30 -25 -30 -16 0 -26 6 -28 18 -6 30 6 49 30 45 18 -2 23 -9 23 -33z m73 26 c8 -4 12 -19 10 -32 -2 -18 -9 -24 -28 -24 -19 0 -26 6 -28 24 -3 20 11 41 28 41 3 0 11 -4 18 -9z m92 -10 c15 -30 2 -53 -29 -49 -19 2 -27 10 -29 27 -6 39 39 56 58 22z m85 0 c5 -3 24 -4 42 -2 32 2 33 1 33 -34 0 -34 -2 -36 -27 -33 -19 2 -29 10 -33 28 l-6 25 -12 -22 c-17 -31 -50 -30 -58 2 -11 44 18 61 61 36z m-1121 3 c20 -8 21 -53 1 -60 -12 -5 -11 -9 5 -23 10 -9 20 -25 22 -36 2 -15 -3 -20 -22 -20 -23 0 -25 4 -31 65 -8 79 -6 86 25 74z m81 -29 c0 -23 -4 -30 -20 -30 -21 0 -31 25 -21 51 11 28 41 12 41 -21z m-199 -15 c0 -19 4 -43 8 -52 11 -24 3 -53 -14 -53 -10 0 -15 11 -16 37 0 20 -6 43 -12 50 -16 19 -4 60 17 56 11 -2 16 -15 17 -38z m1392 -17 c4 -51 22 -58 22 -9 0 70 54 65 62 -6 5 -45 -10 -53 -73 -43 -46 8 -81 37 -74 60 3 8 7 22 10 31 3 9 14 14 27 12 19 -2 24 -10 26 -45z m150 28 c8 -5 12 -23 10 -47 -3 -34 -6 -39 -28 -39 -27 0 -37 26 -26 71 7 25 21 30 44 15z m80 -44 c3 -45 2 -47 -22 -47 -24 0 -26 4 -26 43 0 48 6 59 30 55 10 -2 16 -17 18 -51z m70 31 c7 -7 12 -25 12 -40 0 -15 5 -28 10 -28 6 0 10 18 10 39 l0 39 108 -3 c141 -5 206 -22 210 -54 4 -23 2 -24 -40 -17 -100 16 -184 23 -192 15 -6 -5 -17 -9 -25 -9 -8 0 -22 -6 -30 -14 -20 -17 -72 -28 -87 -18 -12 8 -24 70 -17 90 6 15 25 16 41 0z m-1117 -28 c11 -6 19 -21 19 -35 0 -21 -5 -25 -30 -25 -26 0 -30 4 -30 28 0 42 9 49 41 32z m77 4 c16 -5 22 -14 22 -35 0 -25 -4 -29 -29 -29 -35 0 -45 12 -37 46 7 26 9 27 44 18z m90 -6 c7 -7 12 -22 12 -35 0 -19 -5 -23 -30 -23 -26 0 -30 4 -30 28 0 42 22 56 48 30z m80 0 c7 -7 12 -22 12 -35 0 -19 -5 -23 -30 -23 -35 0 -47 19 -30 49 12 24 30 27 48 9z m76 6 c10 -4 16 -18 16 -36 0 -27 -2 -29 -32 -26 -36 3 -49 28 -28 53 14 17 21 18 44 9z m93 -25 l13 -24 6 23 c5 16 14 22 35 22 26 0 29 -4 29 -30 l0 -30 -70 0 -70 0 0 29 c0 46 36 52 57 10z m-783 -1 c8 -13 8 -23 0 -35 -9 -14 -7 -23 5 -39 l15 -21 18 21 18 21 20 -24 21 -24 6 21 c8 30 37 28 52 -5 9 -20 9 -28 0 -34 -13 -8 -174 -7 -182 1 -2 3 -8 36 -12 73 -6 62 -5 68 11 65 9 -1 22 -11 28 -20z m224 -10 c3 -25 0 -28 -27 -28 -28 0 -31 3 -31 31 0 27 3 30 28 27 21 -2 28 -9 30 -30z m80 0 c3 -25 0 -28 -27 -28 -35 0 -42 8 -34 39 4 17 12 21 32 19 20 -2 27 -9 29 -30z m640 0 c3 -25 0 -28 -27 -28 -28 0 -31 3 -31 31 0 27 3 30 28 27 21 -2 28 -9 30 -30z m70 20 c5 -7 12 -22 15 -33 5 -19 5 -19 12 3 14 43 70 18 58 -26 -5 -23 -37 -30 -48 -12 -3 6 -24 10 -46 10 -36 0 -39 2 -39 28 0 42 25 57 48 30z m778 -47 c22 -6 29 -13 29 -32 0 -20 -4 -23 -25 -20 -14 2 -66 4 -116 5 -87 1 -92 0 -126 -29 -28 -23 -37 -39 -39 -69 -4 -38 -29 -65 -29 -32 0 9 -11 22 -25 28 -24 11 -26 16 -23 67 3 48 6 56 23 56 16 0 21 -8 23 -37 2 -27 7 -35 18 -31 8 3 14 13 14 23 0 42 29 67 95 84 25 6 141 -2 181 -13z m-627 -5 c13 -15 5 -62 -11 -72 -6 -4 -19 2 -30 13 -14 14 -17 27 -13 46 8 30 35 36 54 13z m179 -59 c3 -55 2 -57 -23 -57 -24 0 -25 3 -25 53 0 58 5 69 30 65 11 -2 16 -18 18 -61z m-78 -7 c0 -57 -1 -60 -25 -60 -18 0 -25 5 -25 20 0 11 -4 20 -10 20 -5 0 -7 -13 -3 -30 4 -23 0 -37 -14 -53 -11 -12 -24 -31 -28 -42 -7 -18 -9 -16 -17 12 -9 34 -54 86 -76 89 -44 7 -57 39 -27 64 18 15 45 -2 45 -27 0 -9 6 -13 14 -10 18 7 31 -9 40 -46 9 -37 26 -25 26 20 0 26 5 36 20 40 12 3 20 14 20 27 0 29 8 36 37 36 22 0 23 -4 23 -60z m150 5 c0 -52 -1 -55 -25 -55 -24 0 -25 3 -25 55 0 52 1 55 25 55 24 0 25 -3 25 -55z m-1470 15 c0 -4 3 -16 6 -25 6 -13 1 -16 -22 -13 -29 3 -41 25 -30 54 4 12 10 12 26 4 11 -6 20 -15 20 -20z m280 15 c6 -8 10 -22 8 -32 -5 -25 -51 -25 -56 0 -8 42 23 63 48 32z m78 -22 c3 -29 1 -33 -22 -33 -19 0 -27 7 -32 24 -8 32 3 48 29 44 17 -2 23 -11 25 -35z m77 2 c0 -25 -4 -30 -25 -30 -21 0 -26 5 -28 33 -3 31 -2 33 25 30 24 -3 28 -8 28 -33z m83 3 c-2 -28 -7 -33 -28 -33 -16 0 -26 6 -28 18 -6 30 6 47 33 47 24 0 26 -3 23 -32z m77 -3 c0 -25 -4 -30 -25 -30 -21 0 -26 5 -28 33 -3 31 -2 33 25 30 24 -3 28 -8 28 -33z m83 3 c2 -20 -2 -28 -19 -33 -27 -9 -49 16 -42 46 9 32 57 22 61 -13z m79 16 c8 -22 -10 -49 -32 -49 -10 0 -22 7 -28 16 -15 24 -1 49 28 49 15 0 28 -7 32 -16z m78 5 c4 -5 4 -21 1 -35 -5 -17 -13 -24 -30 -24 -26 0 -40 23 -31 51 7 21 49 26 60 8z m81 -13 c8 -32 -2 -46 -31 -46 -29 0 -39 14 -31 46 5 17 13 24 31 24 18 0 26 -7 31 -24z m74 9 c18 -22 3 -55 -26 -55 -21 0 -24 5 -24 35 0 28 4 35 19 35 10 0 24 -7 31 -15z m-1181 -7 c11 -10 14 -10 18 0 8 21 33 13 44 -15 13 -34 -3 -53 -31 -35 -12 7 -21 8 -25 2 -11 -17 -32 -11 -43 13 -10 21 -11 21 -11 1 -1 -20 -9 -22 -123 -29 -203 -14 -223 -13 -223 10 0 26 49 36 192 38 62 1 113 6 113 11 0 4 11 5 24 2 14 -3 28 -2 31 4 8 13 18 13 34 -2z m122 -4 c10 -13 10 -19 0 -36 -10 -17 -10 -22 4 -32 20 -15 16 -61 -5 -61 -10 0 -16 12 -18 35 -2 19 -8 39 -13 45 -5 5 -9 22 -9 37 0 31 20 37 41 12z m1137 -11 c-2 -22 -9 -29 -30 -31 -24 -3 -28 0 -28 21 0 30 7 37 37 37 21 0 24 -4 21 -27z m778 -20 c8 -3 14 -15 12 -26 -3 -18 -10 -20 -98 -18 -80 1 -101 -2 -134 -19 -46 -25 -57 -19 -30 17 37 49 80 65 162 58 40 -3 80 -9 88 -12z m-1638 -35 c17 -17 15 -55 -3 -62 -16 -6 -45 18 -45 38 0 12 19 36 30 36 3 0 11 -5 18 -12z m66 6 c10 -4 16 -18 16 -35 0 -22 -5 -29 -20 -29 -27 0 -50 47 -29 61 17 11 14 10 33 3z m84 -3 c8 -4 12 -19 10 -32 -4 -30 -51 -35 -56 -6 -8 39 15 58 46 38z m80 -3 c21 -21 14 -47 -14 -54 -28 -7 -44 7 -44 38 0 14 9 20 41 27 3 0 10 -4 17 -11z m77 -23 c0 -23 -5 -31 -22 -33 -17 -3 -24 3 -29 22 -8 32 3 48 29 44 17 -2 22 -10 22 -33z m73 26 c8 -4 12 -19 10 -32 -4 -30 -51 -35 -56 -6 -8 39 15 58 46 38z m78 1 c7 -4 14 -16 17 -27 4 -19 5 -19 6 1 0 12 7 24 15 27 23 9 56 -4 57 -22 1 -14 2 -14 6 1 5 21 41 34 55 20 5 -5 8 -20 6 -33 -2 -19 -8 -23 -28 -21 -14 1 -29 2 -35 2 -5 0 -39 -1 -74 -3 -50 -2 -66 1 -74 15 -19 29 19 60 49 40z m232 -1 c8 -4 12 -19 10 -32 -2 -18 -9 -24 -28 -24 -19 0 -26 6 -28 24 -3 20 11 41 28 41 3 0 11 -4 18 -9z m83 -1 c16 0 9 -49 -8 -58 -27 -14 -43 -3 -43 27 0 32 9 44 28 36 7 -3 18 -5 23 -5z m-1151 -44 c0 -20 -6 -21 -108 -24 -59 -2 -144 -7 -190 -11 -75 -6 -85 -5 -93 11 -6 10 -8 22 -5 27 6 9 134 22 262 26 65 3 73 1 82 -18 11 -22 11 -22 11 -1 1 11 4 24 8 27 10 11 33 -14 33 -37z m50 29 c14 -17 10 -47 -7 -52 -7 -3 -17 7 -23 22 -15 40 4 61 30 30z m128 3 c10 -10 15 -10 21 1 13 20 46 9 49 -18 5 -36 -16 -51 -36 -25 -17 21 -18 21 -33 1 -20 -26 -39 -14 -39 24 0 31 17 38 38 17z m140 -17 c2 -13 -1 -28 -7 -34 -15 -15 -41 10 -41 40 0 20 4 24 23 21 14 -2 23 -11 25 -27z m910 21 c7 -5 10 -16 6 -25 -3 -10 -1 -17 5 -17 6 0 11 7 11 15 0 17 26 20 35 4 4 -5 18 -14 31 -19 23 -9 43 -54 29 -68 -4 -4 -15 3 -25 16 -10 12 -27 22 -39 22 -11 0 -23 4 -26 10 -3 5 -21 9 -38 7 -29 -2 -32 1 -35 31 -3 25 0 32 15 32 10 0 24 -4 31 -8z m339 -85 c-8 -91 -47 -89 -47 3 0 60 12 78 39 57 9 -8 12 -26 8 -60z m65 3 c-4 -52 -16 -75 -34 -64 -4 3 -8 32 -8 65 0 57 1 60 23 57 20 -3 22 -7 19 -58z m-135 -5 c0 -53 -15 -84 -35 -71 -11 7 -48 -31 -39 -40 4 -4 18 1 32 10 14 9 29 15 33 12 4 -2 7 -28 7 -58 0 -49 -2 -53 -24 -56 -14 -2 -35 -10 -47 -18 -29 -19 -35 -8 -24 43 7 31 6 50 -5 77 -8 19 -11 37 -6 40 5 3 12 18 16 33 7 31 53 80 76 82 13 1 16 -10 16 -54z m-813 12 c26 -19 13 -57 -20 -57 -20 0 -24 5 -24 28 0 43 13 52 44 29z m99 1 c22 2 43 2 65 0 9 0 22 0 27 2 6 1 36 2 68 1 57 -1 58 -1 55 -28 -2 -22 -9 -29 -30 -31 -23 -3 -28 1 -29 20 l0 23 -16 -22 c-20 -29 -53 -30 -61 -1 l-5 22 -8 -22 c-11 -28 -42 -28 -62 1 l-16 22 0 -22 c-1 -31 -47 -32 -56 -3 -8 26 13 53 34 44 9 -4 24 -6 34 -6z m-585 -31 c3 -21 -1 -27 -17 -27 -21 0 -37 32 -26 50 12 20 40 5 43 -23z m130 1 c3 -23 -1 -28 -18 -28 -14 0 -24 8 -28 22 l-5 22 -8 -22 c-10 -28 -35 -28 -49 -2 -16 31 -5 39 53 37 49 -2 52 -4 55 -29z m72 2 c0 -23 -4 -30 -20 -30 -12 0 -24 9 -29 23 -11 29 -6 37 25 37 20 0 24 -5 24 -30z m73 11 c6 -26 -7 -44 -29 -39 -12 2 -20 13 -22 31 -3 23 0 27 21 27 16 0 26 -7 30 -19z m75 -14 c3 -26 1 -28 -25 -25 -22 2 -29 9 -31 31 -3 26 -1 28 25 25 22 -2 29 -9 31 -31z m72 2 c0 -27 -3 -30 -27 -27 -22 2 -29 9 -31 31 -3 24 0 27 27 27 28 0 31 -3 31 -31z m456 16 c8 -20 -13 -45 -37 -45 -14 0 -19 7 -19 30 0 25 4 30 25 30 14 0 28 -7 31 -15z m72 -12 c-2 -22 -9 -29 -30 -31 -25 -3 -28 0 -28 27 0 28 3 31 31 31 27 0 30 -3 27 -27z m71 13 c17 -20 3 -46 -25 -46 -20 0 -24 5 -24 30 0 23 5 30 19 30 10 0 24 -6 30 -14z m-735 -81 c9 -25 -5 -46 -28 -43 -15 2 -22 11 -24 31 -3 23 0 27 21 27 14 0 27 -7 31 -15z m71 -5 c8 -25 -1 -40 -25 -40 -18 0 -30 18 -30 46 0 22 48 17 55 -6z m70 -10 c0 -18 -6 -26 -22 -28 -13 -2 -23 0 -23 5 0 4 -3 18 -7 31 -5 21 -3 23 23 20 23 -2 29 -8 29 -28z m75 6 c0 -31 -30 -43 -47 -20 -21 29 -15 44 17 44 25 0 30 -4 30 -24z m74 7 c8 -21 -17 -48 -38 -40 -9 4 -16 18 -16 32 0 20 5 25 24 25 13 0 27 -8 30 -17z m73 1 c3 -8 -1 -23 -10 -31 -21 -21 -47 -9 -47 22 0 20 5 25 25 25 14 0 28 -7 32 -16z m73 -8 c0 -16 -7 -27 -20 -31 -25 -8 -40 1 -40 24 0 24 9 31 37 31 18 0 23 -6 23 -24z m70 0 c0 -14 -5 -28 -10 -31 -17 -11 -50 5 -50 24 0 24 9 31 37 31 18 0 23 -6 23 -24z m75 14 c10 -16 -15 -51 -33 -48 -10 2 -18 15 -20 31 -3 23 0 27 22 27 14 0 28 -4 31 -10z m75 -9 c0 -24 -25 -45 -45 -37 -15 5 -21 37 -8 49 3 4 17 7 30 7 16 0 23 -6 23 -19z m418 -48 c-2 -46 -7 -59 -21 -61 -23 -5 -31 19 -23 73 6 36 11 45 27 45 18 0 20 -6 17 -57z m-1000 -36 c3 -21 -1 -27 -17 -27 -21 0 -37 32 -26 50 12 20 40 5 43 -23z m72 12 c9 -15 8 -24 -1 -36 -11 -13 -10 -18 6 -29 17 -12 20 -12 28 2 6 10 5 20 -2 27 -14 14 -14 44 -1 52 14 8 50 -13 50 -30 0 -8 -7 -18 -16 -23 -14 -8 -14 -10 1 -22 12 -10 21 -11 33 -3 12 7 24 7 41 -1 18 -8 25 -8 28 1 8 22 -1 28 -37 28 -29 0 -36 4 -38 23 -4 27 19 38 48 22 18 -10 24 -9 31 1 7 12 12 12 29 1 15 -9 26 -10 41 -1 17 9 25 8 37 -4 8 -9 12 -23 9 -31 -7 -19 -38 -21 -54 -5 -9 9 -16 8 -27 -4 -9 -9 -16 -18 -16 -20 0 -11 33 -16 49 -7 12 6 24 5 38 -5 17 -12 21 -11 31 5 7 12 8 21 2 25 -6 3 -10 15 -10 25 0 19 32 36 50 25 13 -8 13 -38 -1 -52 -7 -7 -9 -19 -5 -29 6 -16 8 -16 26 1 15 14 17 20 7 36 -9 15 -8 22 5 35 23 24 53 11 43 -19 -4 -12 -8 -34 -9 -48 0 -14 -7 -33 -13 -41 -9 -11 -10 -17 -1 -26 8 -8 8 -15 0 -24 -14 -17 -363 -19 -369 -3 -1 6 2 17 7 25 8 13 13 13 30 2 16 -10 25 -10 35 -2 10 8 19 8 33 1 11 -6 22 -8 25 -5 10 10 91 11 104 1 7 -5 20 -4 32 3 15 7 27 8 40 1 25 -14 49 10 27 28 -10 8 -16 9 -21 1 -8 -14 -42 -13 -47 1 -3 8 -10 8 -26 -2 -16 -10 -24 -11 -33 -2 -8 8 -18 9 -35 1 -17 -8 -27 -8 -38 1 -9 7 -17 8 -20 2 -7 -11 -101 -10 -112 1 -3 4 -15 3 -26 -3 -30 -16 -51 -3 -45 28 3 15 0 34 -6 43 -13 21 -3 50 17 50 9 0 20 -9 26 -21z m1250 -58 c0 -6 -10 -17 -22 -25 -25 -18 -153 -23 -163 -7 -8 15 9 21 78 30 89 12 107 12 107 2z m-1246 -67 c23 -9 20 -44 -3 -44 -20 0 -35 25 -25 41 6 11 8 11 28 3z m1241 -14 c3 -5 -3 -29 -14 -53 -14 -31 -18 -55 -14 -80 10 -64 -1 -81 -76 -121 -86 -45 -105 -47 -90 -8 6 15 12 45 12 67 1 26 6 39 15 38 6 -2 12 3 12 10 0 8 29 40 65 73 36 32 65 65 65 72 0 14 16 16 25 2z m-2101 -246 c9 -3 16 -10 16 -16 0 -14 -43 -5 -48 10 -4 13 7 15 32 6z m2086 -173 l0 -49 -47 -12 c-27 -7 -70 -15 -97 -17 l-49 -4 6 37 c7 43 16 50 70 60 21 3 51 12 65 20 45 23 52 18 52 -35z m10 -126 c0 -24 -4 -46 -8 -49 -5 -3 -50 -8 -100 -11 -102 -7 -113 -1 -95 52 8 22 16 28 39 29 17 0 35 4 42 8 7 4 16 4 22 1 5 -3 16 -2 24 2 8 4 29 9 45 10 30 2 31 1 31 -42z m-540 -1 c0 -43 -203 -70 -525 -68 -209 1 -432 16 -470 30 -8 4 -15 13 -15 21 0 13 8 14 42 9 249 -40 818 -31 931 14 32 13 37 12 37 -6z m-12 -61 c-7 -38 -210 -65 -503 -66 -193 -1 -413 15 -461 34 -45 17 -28 32 29 26 28 -4 106 -12 172 -18 192 -18 664 3 715 32 26 15 52 11 48 -8z m558 -38 c3 -14 4 -32 0 -40 -6 -16 -10 -17 -136 -19 l-85 -1 2 29 c1 16 4 30 6 33 3 2 35 5 71 7 37 2 70 7 73 10 4 3 19 6 34 6 22 0 30 -6 35 -25z m-556 -15 c0 -15 -30 -27 -115 -45 -60 -13 -144 -19 -340 -22 -173 -3 -261 -8 -264 -15 -2 -7 76 -9 265 -5 253 6 294 10 417 42 21 6 27 4 27 -8 0 -21 -7 -24 -91 -42 -103 -22 -206 -29 -426 -29 -124 -1 -192 -5 -190 -11 4 -12 317 -14 458 -2 52 4 128 16 167 27 40 11 74 20 76 20 2 0 3 -45 2 -100 -2 -78 -7 -104 -20 -119 -13 -15 -14 -20 -4 -24 10 -4 11 -7 1 -18 -7 -7 -13 -21 -13 -31 0 -9 -12 -24 -27 -32 -16 -8 -22 -15 -15 -16 25 0 11 -17 -30 -36 -39 -17 -40 -19 -17 -25 24 -6 23 -7 -9 -21 -18 -8 -30 -17 -26 -20 8 -9 -94 -72 -161 -99 -51 -20 -77 -24 -170 -24 -94 0 -119 4 -170 25 -76 31 -155 79 -155 95 0 6 -12 17 -27 24 -20 9 -24 14 -14 21 10 6 9 9 -6 14 -27 9 -61 46 -42 46 8 0 4 6 -9 16 -25 17 -30 39 -7 30 24 -9 17 8 -7 19 -26 12 -46 74 -28 85 8 5 7 9 -4 13 -21 8 -21 27 0 27 14 0 14 3 4 15 -20 24 -21 75 -2 75 13 0 12 3 -3 20 -10 11 -16 23 -13 26 3 3 39 -1 79 -10 109 -21 179 -29 179 -19 0 5 -54 17 -120 27 -71 11 -124 24 -131 32 -20 24 -3 27 73 11 118 -25 181 -30 176 -15 -3 8 -35 16 -92 21 -98 9 -157 25 -164 46 -4 11 3 13 34 8 138 -24 246 -29 506 -24 201 3 300 9 343 20 74 18 105 20 105 7z m558 -84 c6 -27 -9 -36 -61 -39 -26 -2 -50 -6 -53 -10 -4 -4 -13 -2 -21 5 -10 8 -17 8 -25 0 -7 -7 -9 -14 -7 -17 9 -8 92 -8 128 0 26 5 32 4 29 -6 -2 -8 -14 -18 -26 -24 -11 -5 -23 -17 -25 -27 -4 -14 -15 -18 -54 -18 -40 0 -53 5 -76 29 -32 35 -33 41 -7 41 28 0 25 19 -5 30 -15 6 -25 17 -25 29 0 18 6 19 68 17 37 -1 81 1 97 5 43 10 59 6 63 -15z"/> <path d="M1320 4169 c-11 -24 -20 -51 -20 -61 0 -9 -6 -19 -12 -21 -10 -4 -9 -8 2 -16 12 -8 19 3 37 61 26 83 23 101 -7 37z"/> <path d="M1674 4198 c3 -9 8 -33 12 -52 6 -36 20 -54 31 -42 3 3 1 12 -6 20 -6 8 -11 18 -9 22 1 5 -6 23 -16 39 -9 17 -15 22 -12 13z"/> <path d="M1237 4193 c-18 -30 -47 -84 -47 -88 0 -3 4 -5 10 -5 11 0 54 89 47 97 -3 2 -7 1 -10 -4z"/> <path d="M1283 4188 c-10 -13 -43 -78 -43 -85 0 -1 4 -3 10 -3 5 0 19 21 30 46 21 45 22 67 3 42z"/> <path d="M1775 4170 c4 -14 13 -38 20 -55 7 -16 15 -38 19 -47 3 -10 10 -18 16 -18 13 0 13 17 0 25 -6 4 -8 10 -5 15 3 5 -8 31 -25 57 -20 31 -29 39 -25 23z"/> <path d="M1370 4155 c0 -14 -5 -25 -11 -25 -6 0 -9 -7 -6 -15 4 -8 2 -17 -3 -20 -15 -9 -12 -25 5 -25 8 0 15 8 15 18 0 10 3 22 7 25 11 11 13 67 3 67 -6 0 -10 -11 -10 -25z"/> <path d="M1633 4150 c2 -19 10 -36 16 -38 8 -3 10 5 5 25 -10 43 -25 53 -21 13z"/> <path d="M1735 4138 c4 -13 11 -27 16 -32 15 -17 23 3 11 29 -15 32 -36 34 -27 3z"/> <path d="M1140 4100 c0 -13 -9 -22 -27 -26 -46 -10 -53 -13 -53 -24 0 -7 6 -8 19 0 11 5 31 10 45 10 18 0 26 5 26 18 0 10 5 23 12 30 9 9 8 12 -5 12 -10 0 -17 -8 -17 -20z"/> <path d="M1950 4089 c0 -4 7 -10 16 -13 24 -9 56 -7 50 3 -7 11 -66 20 -66 10z"/> <path d="M947 4046 c-21 -6 -36 -14 -33 -17 8 -8 126 14 126 23 0 11 -48 8 -93 -6z"/> <path d="M1406 4052 c-3 -5 -46 -8 -96 -7 -88 1 -108 -4 -95 -25 4 -6 13 -5 25 2 26 17 50 -3 31 -26 -7 -8 -9 -21 -5 -27 4 -7 0 -17 -10 -24 -14 -11 -15 -14 -1 -25 18 -15 26 -9 31 22 3 13 7 37 10 55 l6 31 61 -1 c51 -1 62 2 65 16 4 17 -13 24 -22 9z"/> <path d="M1460 4050 c-8 -5 -12 -11 -10 -14 3 -2 64 -6 135 -8 l130 -3 0 -25 c0 -15 7 -26 18 -28 14 -3 16 2 10 30 -3 18 -7 35 -9 37 -2 2 -57 5 -122 6 -65 1 -123 4 -128 8 -6 3 -16 2 -24 -3z"/> <path d="M1926 4051 c5 -5 36 -12 69 -15 l60 -6 -45 15 c-51 17 -99 20 -84 6z"/> <path d="M1770 4033 c0 -5 4 -15 10 -23 5 -9 5 -19 -1 -26 -6 -8 -5 -14 6 -17 8 -4 12 -13 9 -22 -4 -8 -1 -22 6 -30 6 -8 9 -23 6 -33 -4 -11 0 -24 8 -31 18 -15 30 2 18 26 -5 10 -7 24 -5 31 3 7 0 18 -5 25 -6 7 -13 33 -17 60 -5 30 -12 47 -21 47 -8 0 -14 -3 -14 -7z"/> <path d="M1824 4028 c-7 -11 22 -22 40 -15 7 3 17 2 22 -3 13 -12 94 -22 94 -11 0 12 -29 23 -41 15 -6 -3 -15 -1 -22 4 -16 13 -87 20 -93 10z"/> <path d="M1039 4013 c-13 -15 -12 -16 11 -9 14 4 37 7 53 7 15 -1 27 3 27 9 0 17 -76 12 -91 -7z"/> <path d="M955 4011 c-3 -6 -19 -11 -35 -11 -16 0 -30 -7 -34 -16 -5 -13 -2 -15 11 -9 10 4 26 7 35 7 18 -1 45 25 35 34 -3 3 -8 1 -12 -5z"/> <path d="M1141 3986 c-15 -18 2 -31 25 -18 13 7 13 10 1 20 -11 10 -17 9 -26 -2z"/> <path d="M1201 3986 c-9 -10 -9 -16 -1 -21 12 -7 40 11 40 26 0 14 -26 10 -39 -5z"/> <path d="M1026 3973 c-4 -4 -19 -7 -33 -8 -14 0 -28 -6 -31 -14 -3 -10 0 -12 14 -6 11 4 30 8 43 9 13 0 26 7 29 14 4 13 -10 17 -22 5z"/> <path d="M1902 3968 c3 -7 16 -13 29 -14 13 0 32 -4 42 -8 10 -5 21 -6 24 -2 12 11 -11 23 -55 30 -33 5 -43 3 -40 -6z"/> <path d="M1382 3938 c5 -15 37 -18 41 -3 1 6 -9 12 -22 13 -16 3 -22 -1 -19 -10z"/> <path d="M1515 3940 c-8 -13 20 -24 41 -16 20 8 9 26 -16 26 -10 0 -22 -5 -25 -10z"/> <path d="M2070 3943 c0 -12 102 -37 121 -31 13 5 -15 15 -93 34 -16 3 -28 2 -28 -3z"/> <path d="M1066 3924 c-8 -21 -1 -28 19 -20 9 3 15 11 13 18 -7 19 -25 20 -32 2z"/> <path d="M1125 3930 c-11 -17 5 -32 21 -19 8 6 14 15 14 20 0 12 -27 11 -35 -1z"/> <path d="M1860 3930 c-12 -8 -13 -12 -2 -19 8 -4 12 -17 11 -27 -4 -22 8 -44 22 -44 7 0 8 16 4 43 -8 50 -15 59 -35 47z"/> <path d="M1003 3915 c-3 -9 -3 -19 1 -22 8 -9 37 18 30 28 -8 14 -24 11 -31 -6z"/> <path d="M1920 3915 c0 -16 27 -32 37 -21 7 7 -16 36 -28 36 -5 0 -9 -7 -9 -15z"/> <path d="M945 3910 c-11 -17 5 -32 21 -19 8 6 14 15 14 20 0 12 -27 11 -35 -1z"/> <path d="M1390 3895 c-10 -12 -10 -18 0 -30 15 -18 30 -11 30 15 0 26 -15 33 -30 15z"/> <path d="M1454 3889 c-8 -14 11 -33 25 -25 6 4 11 14 11 22 0 16 -26 19 -36 3z"/> <path d="M1524 3889 c-9 -16 12 -33 31 -25 14 5 15 9 5 21 -15 18 -26 19 -36 4z"/> <path d="M1110 3875 c-10 -12 -9 -16 5 -21 19 -8 40 9 31 25 -10 15 -21 14 -36 -4z"/> <path d="M1051 3871 c-7 -5 -11 -14 -7 -19 9 -15 36 -4 36 14 0 16 -9 18 -29 5z"/> <path d="M1935 3870 c-7 -12 11 -40 26 -40 14 0 10 26 -5 39 -10 9 -16 9 -21 1z"/> <path d="M932 3858 c-7 -7 -12 -16 -12 -20 0 -12 28 -10 36 3 10 17 -10 31 -24 17z"/> <path d="M1994 3858 c-4 -5 0 -14 7 -19 20 -13 29 -11 29 5 0 18 -27 29 -36 14z"/> <path d="M2247 3859 c14 -14 115 -51 121 -44 6 6 -62 35 -82 35 -8 0 -18 5 -21 10 -3 6 -11 10 -18 10 -8 0 -8 -3 0 -11z"/> <path d="M872 3848 c-16 -16 -15 -28 3 -28 8 0 15 2 15 4 0 2 3 11 6 20 7 19 -7 21 -24 4z"/> <path d="M2110 3835 c0 -16 27 -32 37 -21 7 7 -16 36 -28 36 -5 0 -9 -7 -9 -15z"/> <path d="M722 3827 c-7 -8 -28 -18 -46 -21 -18 -3 -41 -13 -52 -21 -18 -14 -16 -14 16 -9 19 4 39 10 44 15 5 4 14 5 21 3 14 -6 38 21 33 37 -2 7 -8 6 -16 -4z"/> <path d="M760 3820 c-6 -11 -8 -20 -4 -20 3 0 -1 -12 -11 -26 -9 -14 -14 -28 -11 -31 11 -11 36 20 36 43 0 12 5 26 10 29 6 3 10 10 10 16 0 16 -19 10 -30 -11z"/> <path d="M1380 3830 c-11 -7 -12 -12 -3 -21 14 -14 46 -4 41 13 -6 16 -20 19 -38 8z"/> <path d="M1450 3830 c-13 -9 -13 -11 0 -20 19 -13 34 -8 38 13 4 19 -15 22 -38 7z"/> <path d="M1525 3830 c-4 -7 -3 -16 3 -22 14 -14 45 -2 40 15 -6 16 -34 21 -43 7z"/> <path d="M1042 3818 c-18 -18 -15 -41 4 -34 9 3 18 6 20 6 8 0 4 29 -4 34 -5 3 -14 0 -20 -6z"/> <path d="M1100 3815 c-10 -12 -10 -19 -2 -27 9 -9 15 -7 26 7 23 32 0 49 -24 20z"/> <path d="M1885 3820 c-4 -7 -1 -23 6 -37 11 -20 11 -26 -1 -33 -13 -8 -12 -12 5 -24 11 -9 23 -16 28 -16 11 0 8 38 -4 46 -6 3 -8 16 -5 29 7 26 -17 54 -29 35z"/> <path d="M1950 3809 c-13 -8 -12 -11 4 -24 26 -19 47 -2 26 20 -11 10 -19 11 -30 4z"/> <path d="M910 3795 c-7 -9 -10 -18 -7 -21 10 -11 37 5 37 21 0 19 -14 19 -30 0z"/> <path d="M964 3799 c-3 -6 -1 -16 4 -21 13 -13 45 8 36 23 -7 12 -31 11 -40 -2z"/> <path d="M2015 3801 c-10 -17 15 -45 29 -31 7 7 5 15 -6 26 -11 11 -18 13 -23 5z"/> <path d="M850 3785 c-6 -8 -8 -20 -4 -26 5 -9 11 -7 21 6 23 33 9 51 -17 20z"/> <path d="M2075 3790 c-8 -13 3 -30 21 -30 18 0 18 14 0 29 -10 8 -16 9 -21 1z"/> <path d="M2320 3788 c18 -19 80 -40 80 -28 0 11 -14 20 -37 25 -10 2 -27 7 -38 11 -18 6 -18 5 -5 -8z"/> <path d="M2130 3775 c0 -16 27 -32 37 -21 7 7 -16 36 -28 36 -5 0 -9 -7 -9 -15z"/> <path d="M1451 3766 c-9 -10 -8 -16 4 -26 19 -16 41 1 32 24 -8 20 -21 20 -36 2z"/> <path d="M1523 3769 c-9 -9 -8 -15 2 -25 18 -19 31 -18 39 3 10 25 -21 42 -41 22z"/> <path d="M1601 3766 c-9 -10 -8 -16 4 -26 19 -16 41 1 32 24 -8 20 -21 20 -36 2z"/> <path d="M1091 3756 c-8 -10 -9 -21 -4 -31 8 -14 11 -14 26 3 15 16 15 21 4 31 -11 9 -17 8 -26 -3z"/> <path d="M2242 3753 c2 -10 12 -18 23 -19 11 -1 28 -5 38 -9 10 -4 20 -5 23 -2 11 11 -8 27 -31 27 -13 0 -27 5 -30 10 -10 17 -27 11 -23 -7z"/> <path d="M1022 3747 c-7 -8 -7 -18 -2 -27 8 -13 11 -13 26 2 9 9 13 21 10 27 -9 15 -21 14 -34 -2z"/> <path d="M890 3734 c-9 -10 -10 -18 -2 -26 12 -12 32 -2 32 17 0 21 -16 26 -30 9z"/> <path d="M951 3736 c-9 -10 -9 -16 -1 -21 12 -7 40 11 40 26 0 14 -26 10 -39 -5z"/> <path d="M1957 3744 c-9 -10 12 -34 30 -34 19 0 12 34 -8 38 -8 1 -18 0 -22 -4z"/> <path d="M2020 3731 c0 -5 7 -14 15 -21 18 -15 42 1 31 19 -8 13 -46 15 -46 2z"/> <path d="M535 3709 l-40 -19 35 5 c19 3 39 10 44 15 18 18 1 17 -39 -1z"/> <path d="M2090 3710 c12 -22 25 -26 35 -10 4 6 15 4 30 -6 17 -11 25 -12 30 -4 12 19 -9 31 -59 36 -44 4 -46 3 -36 -16z"/> <path d="M716 3704 c-3 -9 -6 -23 -6 -32 1 -15 3 -14 15 2 17 22 20 46 6 46 -5 0 -12 -7 -15 -16z"/> <path d="M2206 3711 c-3 -4 3 -16 13 -25 15 -13 20 -14 24 -4 3 10 9 8 26 -6 23 -21 37 -16 28 9 -4 8 -16 15 -27 15 -12 0 -30 5 -40 10 -10 6 -21 6 -24 1z"/> <path d="M2386 3712 c14 -12 144 -55 150 -49 6 6 -121 57 -143 57 -10 0 -13 -3 -7 -8z"/> <path d="M1006 3681 c-14 -15 -14 -20 -3 -30 11 -8 18 -7 31 8 14 15 14 20 3 30 -11 8 -18 7 -31 -8z"/> <path d="M933 3672 c-8 -5 -8 -12 3 -26 14 -20 14 -20 29 0 8 10 15 22 15 27 0 9 -31 9 -47 -1z"/> <path d="M2160 3646 c0 -24 26 -38 39 -22 10 12 8 17 -8 25 -26 14 -31 14 -31 -3z"/> <path d="M2220 3644 c1 -21 27 -43 37 -33 7 7 17 7 31 -2 12 -7 24 -10 28 -6 11 11 -14 32 -39 33 -12 1 -30 5 -39 9 -10 4 -18 3 -18 -1z"/> <path d="M2337 3623 c-3 -3 -3 -11 0 -19 7 -18 33 -18 33 0 0 14 -24 29 -33 19z"/> <path d="M2297 3564 c-3 -4 -2 -15 4 -26 8 -15 13 -17 25 -7 11 9 17 9 28 0 8 -7 20 -11 28 -10 17 3 80 -14 187 -51 47 -16 87 -27 89 -25 13 13 -218 96 -303 110 -11 2 -27 6 -36 9 -8 4 -18 4 -22 0z"/> <path d="M2325 3420 c-3 -5 -1 -19 5 -31 7 -11 10 -29 7 -39 -5 -20 9 -50 25 -50 6 0 8 10 4 28 -4 15 -9 38 -10 52 -2 14 -4 31 -4 38 -2 14 -18 16 -27 2z"/> <path d="M2212 3364 c-8 -14 -7 -23 5 -36 8 -10 13 -24 10 -33 -7 -17 -42 -20 -52 -5 -5 8 -11 8 -20 0 -10 -8 -10 -16 -1 -35 12 -28 26 -33 26 -10 0 23 38 18 51 -7 l12 -22 9 23 c5 15 4 28 -3 37 -6 8 -9 27 -6 43 4 17 1 36 -7 46 -13 18 -14 17 -24 -1z"/> <path d="M2395 3330 c-9 -15 16 -43 27 -32 10 10 0 42 -12 42 -5 0 -12 -5 -15 -10z"/> <path d="M2071 3291 c-12 -8 -10 -12 12 -22 22 -10 30 -10 40 0 21 21 -23 40 -52 22z"/> <path d="M2346 3262 c-2 -4 2 -18 9 -31 l13 -24 6 21 c10 31 -13 59 -28 34z"/> <path d="M586 3345 c-4 -11 -12 -14 -25 -10 -11 3 -22 1 -26 -5 -4 -6 -14 -9 -22 -6 -8 3 -39 -3 -69 -13 -29 -11 -54 -17 -54 -14 0 3 -7 0 -15 -7 -8 -7 -15 -10 -15 -6 0 4 -18 -3 -41 -14 -55 -29 -43 -36 23 -14 29 10 55 19 58 19 3 1 25 5 50 9 25 5 51 13 58 19 9 7 16 7 24 -1 8 -8 14 -7 24 5 9 14 15 15 27 5 11 -10 17 -9 27 3 11 13 11 19 -2 31 -14 14 -16 14 -22 -1z"/> <path d="M573 3254 c-9 -23 11 -38 26 -20 13 16 7 36 -10 36 -5 0 -12 -7 -16 -16z"/> <path d="M2500 2090 c0 -6 -22 -25 -50 -42 -27 -17 -50 -35 -50 -39 0 -14 12 -11 45 10 57 36 94 81 65 81 -5 0 -10 -5 -10 -10z"/> <path d="M1903 1413 c-13 -2 -23 -9 -23 -14 0 -10 44 -2 70 12 12 7 11 8 -5 7 -11 0 -30 -3 -42 -5z"/> <path d="M1135 1400 c-6 -9 20 -16 93 -26 36 -4 52 -3 52 5 0 6 -15 11 -32 11 -18 0 -50 4 -71 9 -20 5 -39 5 -42 1z"/> <path d="M1835 1405 c-5 -2 -22 -6 -37 -9 -16 -4 -28 -11 -28 -16 0 -6 11 -8 25 -5 14 3 36 7 50 10 14 3 23 10 20 15 -6 10 -12 11 -30 5z"/> <path d="M1294 1378 c-3 -5 -4 -8 -2 -9 53 -11 458 -2 458 10 0 9 -451 8 -456 -1z"/> <path d="M1865 1359 c-78 -24 -575 -34 -631 -12 -12 4 -15 2 -12 -8 3 -8 24 -17 49 -20 44 -7 440 -2 492 5 103 15 168 29 173 37 7 11 -31 10 -71 -2z"/> <path d="M1135 1349 c-5 -7 29 -19 58 -19 9 0 17 4 17 9 0 11 -69 20 -75 10z"/> <path d="M1085 1312 c13 -14 114 -32 120 -22 3 4 -12 11 -33 14 -20 4 -50 9 -67 12 -20 4 -27 3 -20 -4z"/> <path d="M1843 1308 c-24 -5 -43 -14 -43 -20 0 -10 10 -9 93 13 72 19 30 25 -50 7z"/> <path d="M1223 1288 c2 -8 19 -13 41 -12 20 1 36 -2 36 -7 0 -7 380 -3 454 5 17 1 32 8 34 15 3 8 -4 10 -25 4 -38 -10 -481 -10 -516 0 -22 6 -28 5 -24 -5z"/> <path d="M1083 1267 c10 -8 48 -20 85 -27 37 -6 77 -13 90 -16 12 -2 22 0 22 6 0 13 -7 15 -100 28 -41 5 -84 13 -95 17 -19 6 -19 6 -2 -8z"/> <path d="M1860 1264 c-57 -14 -394 -39 -408 -30 -18 11 -156 9 -160 -2 -5 -16 358 -16 478 -2 95 12 160 29 160 42 0 10 0 10 -70 -8z"/> <path d="M1890 1223 c-14 -2 -57 -11 -97 -19 -51 -10 -143 -14 -308 -14 -155 0 -234 -3 -230 -10 4 -6 92 -10 232 -10 188 0 242 3 326 21 119 24 180 49 77 32z"/> <path d="M1104 1211 c3 -4 25 -11 48 -15 24 -4 53 -9 66 -13 12 -3 22 -1 22 5 0 5 -26 14 -57 21 -68 13 -86 14 -79 2z"/> <path d="M1895 1179 c-131 -42 -507 -54 -687 -22 -60 10 -108 16 -108 12 0 -3 37 -15 83 -25 69 -16 120 -19 327 -18 215 0 255 3 329 22 46 11 89 26 94 31 13 13 3 13 -38 0z"/> <path d="M1136 1115 c62 -27 270 -48 424 -42 144 6 294 27 328 46 24 15 6 13 -89 -6 -120 -25 -493 -25 -596 0 -84 20 -110 21 -67 2z"/> <path d="M1220 1053 c37 -13 88 -16 282 -17 177 -1 240 2 250 12 15 15 16 15 -126 2 -100 -10 -262 -4 -411 15 l-40 5 45 -17z"/> <path d="M1604 1003 c7 -7 98 -5 105 3 2 2 -22 4 -54 4 -32 0 -55 -3 -51 -7z"/> <path d="M1468 993 c23 -2 61 -2 85 0 23 2 4 4 -43 4 -47 0 -66 -2 -42 -4z"/> <path d="M604 2477 c-8 -21 15 -52 29 -38 6 6 4 17 -6 32 -14 20 -17 20 -23 6z"/> <path d="M625 2411 c-10 -17 4 -51 21 -51 18 0 18 19 0 43 -9 12 -16 14 -21 8z"/> <path d="M680 2398 c0 -29 16 -46 31 -31 6 6 2 19 -10 34 l-20 24 -1 -27z"/> <path d="M737 2406 c-4 -10 0 -27 8 -39 8 -12 15 -29 15 -38 0 -9 9 -24 20 -34 16 -14 20 -15 20 -3 0 8 -7 23 -15 34 -8 10 -15 28 -15 40 0 11 -6 28 -13 38 -13 18 -14 18 -20 2z"/> <path d="M851 2402 c-8 -15 -7 -23 5 -33 24 -20 40 4 21 31 -15 22 -15 22 -26 2z"/> <path d="M911 2401 c-9 -17 -8 -22 8 -31 27 -14 36 4 17 31 l-14 21 -11 -21z"/> <path d="M1031 2396 c-10 -12 -8 -17 9 -26 29 -15 49 2 30 25 -16 19 -24 19 -39 1z"/> <path d="M572 2383 c4 -21 33 -25 33 -3 0 8 -8 16 -18 18 -14 3 -18 -1 -15 -15z"/> <path d="M1878 2331 c-10 -11 -14 -28 -11 -41 4 -14 -1 -26 -13 -35 -15 -11 -16 -16 -7 -26 16 -16 47 7 38 29 -3 8 1 22 8 31 8 9 11 26 8 39 -6 22 -6 22 -23 3z"/> <path d="M590 2322 c0 -19 27 -38 39 -27 7 8 -12 38 -27 43 -7 2 -12 -5 -12 -16z"/> <path d="M650 2323 c0 -11 6 -26 14 -32 23 -19 28 14 5 35 -18 16 -19 16 -19 -3z"/> <path d="M705 2330 c-4 -6 2 -22 14 -34 12 -12 18 -25 15 -29 -8 -8 14 -37 27 -37 14 0 10 26 -6 40 -8 7 -15 20 -15 30 0 23 -26 45 -35 30z"/> <path d="M875 2330 c-7 -12 11 -40 26 -40 14 0 10 26 -5 39 -10 9 -16 9 -21 1z"/> <path d="M934 2327 c-7 -20 3 -37 22 -37 18 0 18 24 -1 40 -12 10 -16 9 -21 -3z"/> <path d="M994 2327 c-7 -20 3 -37 22 -37 18 0 18 24 -1 40 -12 10 -16 9 -21 -3z"/> <path d="M1054 2327 c-7 -20 3 -37 22 -37 18 0 18 24 -1 40 -12 10 -16 9 -21 -3z"/> <path d="M2000 2300 c0 -11 4 -20 9 -20 13 0 32 26 24 33 -13 14 -33 6 -33 -13z"/> <path d="M620 2255 c0 -16 27 -32 37 -21 7 7 -16 36 -28 36 -5 0 -9 -7 -9 -15z"/> <path d="M676 2261 c-7 -10 28 -43 37 -35 8 8 -11 44 -23 44 -5 0 -11 -4 -14 -9z"/> <path d="M790 2255 c0 -16 27 -32 37 -21 7 7 -16 36 -28 36 -5 0 -9 -7 -9 -15z"/> <path d="M846 2261 c-7 -10 28 -43 37 -35 8 8 -11 44 -23 44 -5 0 -11 -4 -14 -9z"/> <path d="M900 2255 c0 -16 27 -32 37 -21 7 7 -16 36 -28 36 -5 0 -9 -7 -9 -15z"/> <path d="M957 2263 c-10 -9 5 -33 19 -33 18 0 18 26 0 33 -8 3 -16 3 -19 0z"/> <path d="M1015 2260 c-8 -13 3 -30 21 -30 18 0 18 14 0 29 -10 8 -16 9 -21 1z"/> <path d="M1195 2260 c-7 -12 12 -40 27 -40 13 0 6 43 -9 47 -6 2 -14 -1 -18 -7z"/> <path d="M1917 2256 c-14 -11 -15 -15 -4 -24 15 -13 37 2 37 25 0 16 -10 16 -33 -1z"/> <path d="M1975 2250 c-11 -18 5 -31 26 -20 11 6 17 15 14 21 -8 12 -32 12 -40 -1z"/> <path d="M650 2201 c0 -6 9 -15 21 -21 18 -10 20 -9 17 7 -3 19 -38 32 -38 14z"/> <path d="M707 2203 c-4 -3 2 -13 14 -21 24 -17 37 -9 19 13 -14 16 -23 19 -33 8z"/> <path d="M765 2201 c-6 -11 29 -33 39 -24 7 7 -12 33 -25 33 -4 0 -10 -4 -14 -9z"/> <path d="M2015 2196 c-11 -8 -14 -15 -7 -20 12 -7 42 3 42 14 0 16 -17 19 -35 6z"/> <path d="M2362 2199 c2 -6 7 -10 11 -10 4 1 17 1 30 1 18 0 19 2 7 10 -20 13 -53 13 -48 -1z"/> <path d="M1032 2188 c5 -15 37 -18 41 -3 1 6 -9 12 -22 13 -16 3 -22 -1 -19 -10z"/> <path d="M1890 2190 c-12 -8 -12 -10 2 -15 19 -7 38 1 38 16 0 12 -21 11 -40 -1z"/> <path d="M1945 2190 c-8 -12 20 -24 35 -15 5 3 10 10 10 16 0 12 -37 12 -45 -1z"/> <path d="M533 2143 c-29 -11 -11 -24 25 -19 20 4 56 7 80 8 23 1 42 5 42 10 0 8 -126 10 -147 1z"/> <path d="M795 2110 c-3 -6 -17 -7 -30 -4 -12 3 -25 2 -28 -3 -3 -4 17 -8 44 -9 39 -1 47 2 38 13 -14 16 -16 16 -24 3z"/> <path d="M586 2089 c-14 -11 -26 -25 -26 -30 0 -14 22 -11 34 6 6 9 35 19 64 24 72 11 77 21 10 21 -41 0 -62 -5 -82 -21z"/> <path d="M940 2098 c0 -8 59 -12 153 -10 42 0 49 -3 57 -24 5 -13 17 -24 26 -24 16 0 16 1 1 18 -24 27 -21 30 23 28 37 -2 54 -9 56 -24 0 -4 6 -18 11 -32 6 -14 19 -43 28 -65 35 -85 40 -95 47 -95 6 0 -22 86 -49 150 -3 8 -7 18 -7 22 -1 3 -4 10 -8 14 -15 14 -8 35 10 32 9 -2 17 -12 17 -23 0 -19 8 -20 203 -23 130 -1 202 1 202 8 0 6 -73 11 -192 12 -177 3 -193 4 -190 21 3 15 -7 17 -85 17 -48 1 -136 2 -196 3 -59 1 -107 -1 -107 -5z"/> <path d="M1613 2102 c-150 -1 -263 -6 -263 -11 0 -6 83 -9 196 -8 183 2 226 -3 193 -24 -18 -10 -5 -23 16 -15 9 3 15 14 13 23 -3 16 7 18 77 19 134 3 145 4 145 12 0 4 -26 8 -57 7 -32 0 -176 -1 -320 -3z"/> <path d="M2042 2079 c-7 -12 -11 -23 -8 -27 7 -6 46 27 46 40 0 16 -25 8 -38 -13z"/> <path d="M654 2055 c-34 -19 -40 -35 -16 -43 7 -2 12 3 12 12 0 24 59 31 233 30 87 -1 155 2 150 7 -4 4 -84 9 -176 11 -153 3 -172 1 -203 -17z"/> <path d="M719 2022 c-27 -19 -69 -59 -69 -67 0 -3 9 -5 20 -5 11 0 20 4 20 10 0 36 64 63 175 73 22 2 4 4 -40 5 -62 1 -86 -2 -106 -16z"/> <path d="M985 2019 c57 -11 165 -11 165 1 0 6 -40 10 -102 9 -82 -1 -95 -3 -63 -10z"/> <path d="M1222 2023 c2 -5 20 -43 41 -86 20 -43 37 -85 37 -92 0 -8 5 -17 11 -21 21 -13 3 40 -57 174 -8 17 -20 32 -25 32 -6 0 -9 -3 -7 -7z"/> <path d="M1323 2016 c4 -10 7 -24 7 -32 0 -8 6 -14 14 -14 18 0 6 52 -14 58 -9 3 -11 -1 -7 -12z"/> <path d="M1373 2018 c2 -7 10 -37 17 -65 15 -57 27 -70 24 -25 -1 15 -3 27 -4 27 -1 0 -3 11 -6 25 -7 38 -12 50 -25 50 -6 0 -9 -6 -6 -12z"/> <path d="M1424 2014 c3 -9 6 -22 6 -30 0 -8 7 -14 16 -14 13 0 14 3 5 14 -6 7 -9 21 -5 30 4 11 1 16 -11 16 -12 0 -15 -5 -11 -16z"/> <path d="M1624 2005 c-6 -24 0 -44 10 -34 11 11 17 59 7 59 -6 0 -13 -11 -17 -25z"/> <path d="M1680 2012 c0 -10 -5 -23 -12 -30 -9 -9 -8 -12 4 -12 9 0 18 10 22 23 8 31 7 37 -4 37 -5 0 -10 -8 -10 -18z"/> <path d="M1721 2000 c-13 -37 5 -41 19 -4 12 31 12 34 1 34 -5 0 -14 -13 -20 -30z"/> <path d="M1770 2004 c-12 -31 -12 -34 -2 -34 8 0 32 43 32 55 0 16 -22 1 -30 -21z"/> <path d="M1813 1993 c-9 -21 -19 -41 -21 -45 -2 -5 0 -8 5 -8 8 0 25 28 51 83 2 4 -1 7 -7 7 -6 0 -18 -17 -28 -37z"/> <path d="M1915 2020 c-8 -13 75 -13 95 0 11 7 0 10 -37 10 -28 0 -55 -4 -58 -10z"/> <path d="M793 2000 c-13 -5 -23 -11 -23 -12 0 -2 70 -4 155 -5 98 -2 155 1 155 7 0 6 -34 10 -82 10 -46 0 -105 2 -133 5 -27 3 -60 1 -72 -5z"/> <path d="M1203 1970 c6 -16 17 -30 24 -30 8 0 7 9 -5 30 -22 39 -34 39 -19 0z"/> <path d="M743 1967 c-4 -7 -16 -16 -25 -20 -24 -9 -23 -27 2 -27 11 0 20 7 20 15 0 8 7 15 15 15 17 0 20 16 6 25 -6 3 -13 -1 -18 -8z"/> <path d="M818 1957 c-16 -6 -28 -17 -28 -24 0 -17 15 -16 30 2 9 11 33 15 91 15 46 0 79 4 79 10 0 13 -137 11 -172 -3z"/> <path d="M624 1929 c-8 -14 11 -33 25 -25 6 4 11 11 11 16 0 13 -29 20 -36 9z"/> <path d="M905 1930 c3 -5 19 -10 36 -10 16 0 29 5 29 10 0 6 -16 10 -36 10 -21 0 -33 -4 -29 -10z"/> <path d="M1115 1920 c-27 -7 -25 -8 18 -9 30 -1 46 3 42 9 -7 11 -16 11 -60 0z"/> <path d="M1697 1918 c-15 -39 -16 -48 -6 -48 13 0 22 24 16 47 -4 17 -4 17 -10 1z"/> <path d="M1770 1904 c-12 -32 -12 -34 0 -34 6 0 10 9 10 20 0 11 5 20 10 20 6 0 10 5 10 10 0 20 -21 9 -30 -16z"/> <path d="M2171 1896 c-12 -14 -5 -26 16 -26 15 0 18 26 4 34 -5 3 -14 0 -20 -8z"/> <path d="M965 1890 c-4 -6 20 -10 67 -9 66 1 69 2 33 10 -55 11 -93 11 -100 -1z"/> <path d="M523 1839 c-5 -8 -16 -25 -23 -39 l-12 -25 27 26 c15 15 26 32 23 39 -3 9 -6 9 -15 -1z"/> <path d="M1055 1811 c74 -16 215 -24 215 -12 0 6 -20 11 -48 11 -27 0 -85 2 -128 5 -59 3 -69 2 -39 -4z"/> <path d="M1738 1813 c-51 -6 -49 -23 2 -23 29 0 40 4 40 15 0 8 -1 14 -2 13 -2 -1 -20 -3 -40 -5z"/> <path d="M1813 1810 c-31 -13 -29 -19 5 -15 15 2 33 4 40 4 7 1 10 6 7 11 -7 12 -22 12 -52 0z"/> <path d="M1420 1801 c0 -12 18 -14 100 -12 74 3 78 11 4 11 -32 0 -69 3 -81 6 -14 4 -23 2 -23 -5z"/> <path d="M565 1756 c-9 -14 -15 -31 -13 -38 3 -7 12 2 22 20 21 41 14 54 -9 18z"/> <path d="M1010 1772 c8 -5 60 -12 115 -16 66 -4 92 -2 78 4 -31 13 -213 24 -193 12z"/> <path d="M1847 1773 c-16 -16 -4 -20 46 -15 79 7 93 21 21 22 -33 0 -64 -3 -67 -7z"/> <path d="M1475 1760 c-255 -6 -271 -8 -130 -16 96 -6 425 5 425 15 0 7 14 7 -295 1z"/> <path d="M1050 1720 c137 -28 533 -38 720 -20 179 18 212 29 65 22 -162 -8 -505 -8 -690 1 -94 4 -125 3 -95 -3z"/> <path d="M2172 764 c-54 -38 -87 -182 -81 -349 4 -76 7 -87 31 -111 22 -22 36 -27 81 -28 117 -1 148 82 112 302 -18 112 -34 152 -70 180 -33 26 -43 27 -73 6z m68 -49 c0 -10 -11 -15 -35 -15 -33 0 -43 8 -28 23 13 14 63 7 63 -8z m28 -42 c3 -10 -14 -13 -62 -13 -61 0 -84 11 -53 24 23 10 110 1 115 -11z m9 -48 c8 -24 0 -27 -77 -33 -66 -4 -70 -3 -70 16 0 22 18 28 98 31 30 1 44 -3 49 -14z m19 -66 c12 -19 -10 -28 -88 -34 -78 -6 -96 0 -84 30 7 18 161 22 172 4z m2 -76 c2 -14 -2 -23 -10 -24 -106 -9 -158 -7 -169 7 -19 23 0 33 71 37 99 5 105 4 108 -20z m4 -62 c-2 -8 -11 -20 -20 -28 -16 -12 -16 -12 1 -13 23 0 21 -10 -9 -44 -36 -40 -92 -42 -128 -3 -14 16 -26 30 -26 33 0 2 18 4 40 4 23 0 40 5 40 11 0 7 -9 9 -21 6 -28 -7 -72 10 -67 26 5 12 68 22 148 22 34 0 44 -4 42 -14z"/> </g> </svg> 